<mxfile host="app.diagrams.net" modified="2023-10-26T04:50:16.185Z" agent="Mozilla/5.0 (Windows NT 10.0; Win64; x64) AppleWebKit/537.36 (KHTML, like Gecko) Chrome/115.0.0.0 Safari/537.36" etag="xMbD5lMHcv1ZkaftuyIx" version="22.0.8" type="device">
  <diagram id="C5RBs43oDa-KdzZeNtuy" name="Page-1">
    <mxGraphModel dx="4359" dy="5209" grid="1" gridSize="10" guides="1" tooltips="1" connect="1" arrows="1" fold="1" page="1" pageScale="1" pageWidth="3300" pageHeight="4681" math="0" shadow="0">
      <root>
        <mxCell id="WIyWlLk6GJQsqaUBKTNV-0" />
        <mxCell id="WIyWlLk6GJQsqaUBKTNV-1" parent="WIyWlLk6GJQsqaUBKTNV-0" />
        <mxCell id="tGMAhIrGCzKoIyGZds5J-61" value="" style="endArrow=none;shadow=0;strokeWidth=1;rounded=0;endFill=0;edgeStyle=elbowEdgeStyle;elbow=vertical;entryX=0;entryY=0.5;entryDx=0;entryDy=0;exitX=1;exitY=0.5;exitDx=0;exitDy=0;" parent="WIyWlLk6GJQsqaUBKTNV-1" target="tGMAhIrGCzKoIyGZds5J-31" edge="1">
          <mxGeometry x="0.5" y="41" relative="1" as="geometry">
            <mxPoint x="602" y="105" as="sourcePoint" />
            <mxPoint x="420" y="275" as="targetPoint" />
            <mxPoint x="-40" y="32" as="offset" />
            <Array as="points">
              <mxPoint x="650" y="105" />
            </Array>
          </mxGeometry>
        </mxCell>
        <mxCell id="tGMAhIrGCzKoIyGZds5J-62" value="1" style="resizable=0;align=left;verticalAlign=bottom;labelBackgroundColor=none;fontSize=16;" parent="tGMAhIrGCzKoIyGZds5J-61" connectable="0" vertex="1">
          <mxGeometry x="-1" relative="1" as="geometry">
            <mxPoint y="4" as="offset" />
          </mxGeometry>
        </mxCell>
        <mxCell id="tGMAhIrGCzKoIyGZds5J-63" value="0..*" style="resizable=0;align=right;verticalAlign=bottom;labelBackgroundColor=none;fontSize=16;" parent="tGMAhIrGCzKoIyGZds5J-61" connectable="0" vertex="1">
          <mxGeometry x="1" relative="1" as="geometry">
            <mxPoint y="1" as="offset" />
          </mxGeometry>
        </mxCell>
        <mxCell id="zkfFHV4jXpPFQw0GAbJ--0" value="User" style="swimlane;fontStyle=2;align=center;verticalAlign=top;childLayout=stackLayout;horizontal=1;startSize=26;horizontalStack=0;resizeParent=1;resizeLast=0;collapsible=1;marginBottom=0;rounded=0;shadow=0;strokeWidth=1;fillColor=#f8cecc;strokeColor=#b85450;" parent="WIyWlLk6GJQsqaUBKTNV-1" vertex="1">
          <mxGeometry x="110" y="34" width="160" height="452" as="geometry">
            <mxRectangle x="110" y="60" width="160" height="26" as="alternateBounds" />
          </mxGeometry>
        </mxCell>
        <mxCell id="zkfFHV4jXpPFQw0GAbJ--1" value="id: Integer" style="text;align=left;verticalAlign=top;spacingLeft=4;spacingRight=4;overflow=hidden;rotatable=0;points=[[0,0.5],[1,0.5]];portConstraint=eastwest;" parent="zkfFHV4jXpPFQw0GAbJ--0" vertex="1">
          <mxGeometry y="26" width="160" height="26" as="geometry" />
        </mxCell>
        <mxCell id="zkfFHV4jXpPFQw0GAbJ--3" value="email: String" style="text;align=left;verticalAlign=top;spacingLeft=4;spacingRight=4;overflow=hidden;rotatable=0;points=[[0,0.5],[1,0.5]];portConstraint=eastwest;rounded=0;shadow=0;html=0;" parent="zkfFHV4jXpPFQw0GAbJ--0" vertex="1">
          <mxGeometry y="52" width="160" height="26" as="geometry" />
        </mxCell>
        <mxCell id="MLxWAp-ao5NovIpb98pb-9" value="password: String" style="text;align=left;verticalAlign=top;spacingLeft=4;spacingRight=4;overflow=hidden;rotatable=0;points=[[0,0.5],[1,0.5]];portConstraint=eastwest;rounded=0;shadow=0;html=0;" parent="zkfFHV4jXpPFQw0GAbJ--0" vertex="1">
          <mxGeometry y="78" width="160" height="26" as="geometry" />
        </mxCell>
        <mxCell id="zkfFHV4jXpPFQw0GAbJ--2" value="phoneNumber: String" style="text;align=left;verticalAlign=top;spacingLeft=4;spacingRight=4;overflow=hidden;rotatable=0;points=[[0,0.5],[1,0.5]];portConstraint=eastwest;rounded=0;shadow=0;html=0;" parent="zkfFHV4jXpPFQw0GAbJ--0" vertex="1">
          <mxGeometry y="104" width="160" height="26" as="geometry" />
        </mxCell>
        <mxCell id="MLxWAp-ao5NovIpb98pb-1" value="firstName: String" style="text;align=left;verticalAlign=top;spacingLeft=4;spacingRight=4;overflow=hidden;rotatable=0;points=[[0,0.5],[1,0.5]];portConstraint=eastwest;rounded=0;shadow=0;html=0;" parent="zkfFHV4jXpPFQw0GAbJ--0" vertex="1">
          <mxGeometry y="130" width="160" height="26" as="geometry" />
        </mxCell>
        <mxCell id="MLxWAp-ao5NovIpb98pb-2" value="lastName: String" style="text;align=left;verticalAlign=top;spacingLeft=4;spacingRight=4;overflow=hidden;rotatable=0;points=[[0,0.5],[1,0.5]];portConstraint=eastwest;rounded=0;shadow=0;html=0;" parent="zkfFHV4jXpPFQw0GAbJ--0" vertex="1">
          <mxGeometry y="156" width="160" height="26" as="geometry" />
        </mxCell>
        <mxCell id="MLxWAp-ao5NovIpb98pb-12" value="address: String" style="text;align=left;verticalAlign=top;spacingLeft=4;spacingRight=4;overflow=hidden;rotatable=0;points=[[0,0.5],[1,0.5]];portConstraint=eastwest;rounded=0;shadow=0;html=0;" parent="zkfFHV4jXpPFQw0GAbJ--0" vertex="1">
          <mxGeometry y="182" width="160" height="26" as="geometry" />
        </mxCell>
        <mxCell id="MLxWAp-ao5NovIpb98pb-13" value="dateOfBirth: Date" style="text;align=left;verticalAlign=top;spacingLeft=4;spacingRight=4;overflow=hidden;rotatable=0;points=[[0,0.5],[1,0.5]];portConstraint=eastwest;rounded=0;shadow=0;html=0;" parent="zkfFHV4jXpPFQw0GAbJ--0" vertex="1">
          <mxGeometry y="208" width="160" height="26" as="geometry" />
        </mxCell>
        <mxCell id="ZJe5yLON-QLYzdqqWPnC-0" value="country: String" style="text;align=left;verticalAlign=top;spacingLeft=4;spacingRight=4;overflow=hidden;rotatable=0;points=[[0,0.5],[1,0.5]];portConstraint=eastwest;rounded=0;shadow=0;html=0;" parent="zkfFHV4jXpPFQw0GAbJ--0" vertex="1">
          <mxGeometry y="234" width="160" height="26" as="geometry" />
        </mxCell>
        <mxCell id="MLxWAp-ao5NovIpb98pb-6" value="createdAt: Date" style="text;align=left;verticalAlign=top;spacingLeft=4;spacingRight=4;overflow=hidden;rotatable=0;points=[[0,0.5],[1,0.5]];portConstraint=eastwest;rounded=0;shadow=0;html=0;" parent="zkfFHV4jXpPFQw0GAbJ--0" vertex="1">
          <mxGeometry y="260" width="160" height="26" as="geometry" />
        </mxCell>
        <mxCell id="MLxWAp-ao5NovIpb98pb-3" value="role: String" style="text;align=left;verticalAlign=top;spacingLeft=4;spacingRight=4;overflow=hidden;rotatable=0;points=[[0,0.5],[1,0.5]];portConstraint=eastwest;rounded=0;shadow=0;html=0;" parent="zkfFHV4jXpPFQw0GAbJ--0" vertex="1">
          <mxGeometry y="286" width="160" height="26" as="geometry" />
        </mxCell>
        <mxCell id="MLxWAp-ao5NovIpb98pb-8" value="imageUrl: String" style="text;align=left;verticalAlign=top;spacingLeft=4;spacingRight=4;overflow=hidden;rotatable=0;points=[[0,0.5],[1,0.5]];portConstraint=eastwest;rounded=0;shadow=0;html=0;" parent="zkfFHV4jXpPFQw0GAbJ--0" vertex="1">
          <mxGeometry y="312" width="160" height="26" as="geometry" />
        </mxCell>
        <mxCell id="MLxWAp-ao5NovIpb98pb-4" value="otpCode: String" style="text;align=left;verticalAlign=top;spacingLeft=4;spacingRight=4;overflow=hidden;rotatable=0;points=[[0,0.5],[1,0.5]];portConstraint=eastwest;rounded=0;shadow=0;html=0;" parent="zkfFHV4jXpPFQw0GAbJ--0" vertex="1">
          <mxGeometry y="338" width="160" height="26" as="geometry" />
        </mxCell>
        <mxCell id="MLxWAp-ao5NovIpb98pb-5" value="otpTimeExpiration: Date" style="text;align=left;verticalAlign=top;spacingLeft=4;spacingRight=4;overflow=hidden;rotatable=0;points=[[0,0.5],[1,0.5]];portConstraint=eastwest;rounded=0;shadow=0;html=0;" parent="zkfFHV4jXpPFQw0GAbJ--0" vertex="1">
          <mxGeometry y="364" width="160" height="26" as="geometry" />
        </mxCell>
        <mxCell id="tGMAhIrGCzKoIyGZds5J-135" value="totalTimeFocus: Integer" style="text;align=left;verticalAlign=top;spacingLeft=4;spacingRight=4;overflow=hidden;rotatable=0;points=[[0,0.5],[1,0.5]];portConstraint=eastwest;rounded=0;shadow=0;html=0;" parent="zkfFHV4jXpPFQw0GAbJ--0" vertex="1">
          <mxGeometry y="390" width="160" height="26" as="geometry" />
        </mxCell>
        <mxCell id="MLxWAp-ao5NovIpb98pb-7" value="isExisted: Boolean" style="text;align=left;verticalAlign=top;spacingLeft=4;spacingRight=4;overflow=hidden;rotatable=0;points=[[0,0.5],[1,0.5]];portConstraint=eastwest;rounded=0;shadow=0;html=0;" parent="zkfFHV4jXpPFQw0GAbJ--0" vertex="1">
          <mxGeometry y="416" width="160" height="26" as="geometry" />
        </mxCell>
        <mxCell id="zkfFHV4jXpPFQw0GAbJ--4" value="" style="line;html=1;strokeWidth=1;align=left;verticalAlign=middle;spacingTop=-1;spacingLeft=3;spacingRight=3;rotatable=0;labelPosition=right;points=[];portConstraint=eastwest;" parent="zkfFHV4jXpPFQw0GAbJ--0" vertex="1">
          <mxGeometry y="442" width="160" height="10" as="geometry" />
        </mxCell>
        <mxCell id="tGMAhIrGCzKoIyGZds5J-28" value="" style="endArrow=none;shadow=0;strokeWidth=1;rounded=0;endFill=0;edgeStyle=orthogonalEdgeStyle;elbow=vertical;entryX=0;entryY=0.5;entryDx=0;entryDy=0;exitX=0.25;exitY=0;exitDx=0;exitDy=0;fillColor=#f8cecc;strokeColor=#b85450;" parent="zkfFHV4jXpPFQw0GAbJ--0" source="zkfFHV4jXpPFQw0GAbJ--0" target="MLxWAp-ao5NovIpb98pb-9" edge="1">
          <mxGeometry x="0.5" y="41" relative="1" as="geometry">
            <mxPoint x="-180" y="70" as="sourcePoint" />
            <mxPoint y="70" as="targetPoint" />
            <mxPoint x="-40" y="32" as="offset" />
            <Array as="points">
              <mxPoint x="40" y="-20" />
              <mxPoint x="-70" y="-20" />
              <mxPoint x="-70" y="100" />
              <mxPoint y="100" />
            </Array>
          </mxGeometry>
        </mxCell>
        <mxCell id="tGMAhIrGCzKoIyGZds5J-29" value="0..*" style="resizable=0;align=left;verticalAlign=bottom;labelBackgroundColor=none;fontSize=16;" parent="tGMAhIrGCzKoIyGZds5J-28" connectable="0" vertex="1">
          <mxGeometry x="-1" relative="1" as="geometry">
            <mxPoint as="offset" />
          </mxGeometry>
        </mxCell>
        <mxCell id="tGMAhIrGCzKoIyGZds5J-30" value="0..*" style="resizable=0;align=right;verticalAlign=bottom;labelBackgroundColor=none;fontSize=16;" parent="tGMAhIrGCzKoIyGZds5J-28" connectable="0" vertex="1">
          <mxGeometry x="1" relative="1" as="geometry">
            <mxPoint x="-7" y="4" as="offset" />
          </mxGeometry>
        </mxCell>
        <mxCell id="ZJe5yLON-QLYzdqqWPnC-2" value="Manage" style="edgeLabel;html=1;align=center;verticalAlign=middle;resizable=0;points=[];" parent="tGMAhIrGCzKoIyGZds5J-28" vertex="1" connectable="0">
          <mxGeometry x="0.121" y="2" relative="1" as="geometry">
            <mxPoint as="offset" />
          </mxGeometry>
        </mxCell>
        <mxCell id="tGMAhIrGCzKoIyGZds5J-145" value="" style="endArrow=none;shadow=0;strokeWidth=1;rounded=0;endFill=0;edgeStyle=orthogonalEdgeStyle;elbow=vertical;entryX=1;entryY=0.5;entryDx=0;entryDy=0;exitX=0.75;exitY=0;exitDx=0;exitDy=0;fillColor=#f8cecc;strokeColor=#b85450;" parent="zkfFHV4jXpPFQw0GAbJ--0" source="zkfFHV4jXpPFQw0GAbJ--0" target="MLxWAp-ao5NovIpb98pb-9" edge="1">
          <mxGeometry x="0.5" y="41" relative="1" as="geometry">
            <mxPoint x="330" y="-30" as="sourcePoint" />
            <mxPoint x="290" y="61" as="targetPoint" />
            <mxPoint x="-40" y="32" as="offset" />
            <Array as="points">
              <mxPoint x="120" y="-30" />
              <mxPoint x="220" y="-30" />
              <mxPoint x="220" y="91" />
            </Array>
          </mxGeometry>
        </mxCell>
        <mxCell id="tGMAhIrGCzKoIyGZds5J-146" value="0..*" style="resizable=0;align=left;verticalAlign=bottom;labelBackgroundColor=none;fontSize=16;" parent="tGMAhIrGCzKoIyGZds5J-145" connectable="0" vertex="1">
          <mxGeometry x="-1" relative="1" as="geometry">
            <mxPoint x="2" y="-1" as="offset" />
          </mxGeometry>
        </mxCell>
        <mxCell id="tGMAhIrGCzKoIyGZds5J-147" value="0..*" style="resizable=0;align=right;verticalAlign=bottom;labelBackgroundColor=none;fontSize=16;" parent="tGMAhIrGCzKoIyGZds5J-145" connectable="0" vertex="1">
          <mxGeometry x="1" relative="1" as="geometry">
            <mxPoint x="29" y="23" as="offset" />
          </mxGeometry>
        </mxCell>
        <mxCell id="ZJe5yLON-QLYzdqqWPnC-1" value="Add&lt;br&gt;Friend" style="edgeLabel;html=1;align=center;verticalAlign=middle;resizable=0;points=[];" parent="tGMAhIrGCzKoIyGZds5J-145" vertex="1" connectable="0">
          <mxGeometry x="0.218" y="1" relative="1" as="geometry">
            <mxPoint as="offset" />
          </mxGeometry>
        </mxCell>
        <mxCell id="zkfFHV4jXpPFQw0GAbJ--17" value="Work" style="swimlane;fontStyle=2;align=center;verticalAlign=top;childLayout=stackLayout;horizontal=1;startSize=26;horizontalStack=0;resizeParent=1;resizeLast=0;collapsible=1;marginBottom=0;rounded=0;shadow=0;strokeWidth=1;fillColor=#f8cecc;strokeColor=#b85450;" parent="WIyWlLk6GJQsqaUBKTNV-1" vertex="1">
          <mxGeometry x="410" y="-86" width="192" height="384" as="geometry">
            <mxRectangle x="480" y="20" width="160" height="26" as="alternateBounds" />
          </mxGeometry>
        </mxCell>
        <mxCell id="zkfFHV4jXpPFQw0GAbJ--18" value="id: Integer" style="text;align=left;verticalAlign=top;spacingLeft=4;spacingRight=4;overflow=hidden;rotatable=0;points=[[0,0.5],[1,0.5]];portConstraint=eastwest;" parent="zkfFHV4jXpPFQw0GAbJ--17" vertex="1">
          <mxGeometry y="26" width="192" height="26" as="geometry" />
        </mxCell>
        <mxCell id="zkfFHV4jXpPFQw0GAbJ--21" value="status: String" style="text;align=left;verticalAlign=top;spacingLeft=4;spacingRight=4;overflow=hidden;rotatable=0;points=[[0,0.5],[1,0.5]];portConstraint=eastwest;rounded=0;shadow=0;html=0;" parent="zkfFHV4jXpPFQw0GAbJ--17" vertex="1">
          <mxGeometry y="52" width="192" height="26" as="geometry" />
        </mxCell>
        <mxCell id="zkfFHV4jXpPFQw0GAbJ--20" value="dueDate: Date" style="text;align=left;verticalAlign=top;spacingLeft=4;spacingRight=4;overflow=hidden;rotatable=0;points=[[0,0.5],[1,0.5]];portConstraint=eastwest;rounded=0;shadow=0;html=0;" parent="zkfFHV4jXpPFQw0GAbJ--17" vertex="1">
          <mxGeometry y="78" width="192" height="26" as="geometry" />
        </mxCell>
        <mxCell id="tGMAhIrGCzKoIyGZds5J-16" value="workName: String" style="text;align=left;verticalAlign=top;spacingLeft=4;spacingRight=4;overflow=hidden;rotatable=0;points=[[0,0.5],[1,0.5]];portConstraint=eastwest;rounded=0;shadow=0;html=0;" parent="zkfFHV4jXpPFQw0GAbJ--17" vertex="1">
          <mxGeometry y="104" width="192" height="26" as="geometry" />
        </mxCell>
        <mxCell id="zkfFHV4jXpPFQw0GAbJ--22" value="pritory: String" style="text;align=left;verticalAlign=top;spacingLeft=4;spacingRight=4;overflow=hidden;rotatable=0;points=[[0,0.5],[1,0.5]];portConstraint=eastwest;rounded=0;shadow=0;html=0;" parent="zkfFHV4jXpPFQw0GAbJ--17" vertex="1">
          <mxGeometry y="130" width="192" height="26" as="geometry" />
        </mxCell>
        <mxCell id="MLxWAp-ao5NovIpb98pb-15" value="numberOfPomodoros: Integer" style="text;align=left;verticalAlign=top;spacingLeft=4;spacingRight=4;overflow=hidden;rotatable=0;points=[[0,0.5],[1,0.5]];portConstraint=eastwest;rounded=0;shadow=0;html=0;" parent="zkfFHV4jXpPFQw0GAbJ--17" vertex="1">
          <mxGeometry y="156" width="192" height="26" as="geometry" />
        </mxCell>
        <mxCell id="tGMAhIrGCzKoIyGZds5J-0" value="timeOfPomodoro: Integer" style="text;align=left;verticalAlign=top;spacingLeft=4;spacingRight=4;overflow=hidden;rotatable=0;points=[[0,0.5],[1,0.5]];portConstraint=eastwest;rounded=0;shadow=0;html=0;" parent="zkfFHV4jXpPFQw0GAbJ--17" vertex="1">
          <mxGeometry y="182" width="192" height="26" as="geometry" />
        </mxCell>
        <mxCell id="tGMAhIrGCzKoIyGZds5J-14" value="startTime: Date" style="text;align=left;verticalAlign=top;spacingLeft=4;spacingRight=4;overflow=hidden;rotatable=0;points=[[0,0.5],[1,0.5]];portConstraint=eastwest;rounded=0;shadow=0;html=0;" parent="zkfFHV4jXpPFQw0GAbJ--17" vertex="1">
          <mxGeometry y="208" width="192" height="26" as="geometry" />
        </mxCell>
        <mxCell id="tGMAhIrGCzKoIyGZds5J-15" value="endTime: Date" style="text;align=left;verticalAlign=top;spacingLeft=4;spacingRight=4;overflow=hidden;rotatable=0;points=[[0,0.5],[1,0.5]];portConstraint=eastwest;rounded=0;shadow=0;html=0;" parent="zkfFHV4jXpPFQw0GAbJ--17" vertex="1">
          <mxGeometry y="234" width="192" height="26" as="geometry" />
        </mxCell>
        <mxCell id="tGMAhIrGCzKoIyGZds5J-17" value="isReminder: Boolean" style="text;align=left;verticalAlign=top;spacingLeft=4;spacingRight=4;overflow=hidden;rotatable=0;points=[[0,0.5],[1,0.5]];portConstraint=eastwest;rounded=0;shadow=0;html=0;" parent="zkfFHV4jXpPFQw0GAbJ--17" vertex="1">
          <mxGeometry y="260" width="192" height="26" as="geometry" />
        </mxCell>
        <mxCell id="tGMAhIrGCzKoIyGZds5J-18" value="isRepeat: Boolean" style="text;align=left;verticalAlign=top;spacingLeft=4;spacingRight=4;overflow=hidden;rotatable=0;points=[[0,0.5],[1,0.5]];portConstraint=eastwest;rounded=0;shadow=0;html=0;" parent="zkfFHV4jXpPFQw0GAbJ--17" vertex="1">
          <mxGeometry y="286" width="192" height="26" as="geometry" />
        </mxCell>
        <mxCell id="tGMAhIrGCzKoIyGZds5J-19" value="note: String" style="text;align=left;verticalAlign=top;spacingLeft=4;spacingRight=4;overflow=hidden;rotatable=0;points=[[0,0.5],[1,0.5]];portConstraint=eastwest;rounded=0;shadow=0;html=0;" parent="zkfFHV4jXpPFQw0GAbJ--17" vertex="1">
          <mxGeometry y="312" width="192" height="26" as="geometry" />
        </mxCell>
        <mxCell id="ZJe5yLON-QLYzdqqWPnC-3" value="assignee: Integer" style="text;align=left;verticalAlign=top;spacingLeft=4;spacingRight=4;overflow=hidden;rotatable=0;points=[[0,0.5],[1,0.5]];portConstraint=eastwest;rounded=0;shadow=0;html=0;" parent="zkfFHV4jXpPFQw0GAbJ--17" vertex="1">
          <mxGeometry y="338" width="192" height="26" as="geometry" />
        </mxCell>
        <mxCell id="zkfFHV4jXpPFQw0GAbJ--23" value="" style="line;html=1;strokeWidth=1;align=left;verticalAlign=middle;spacingTop=-1;spacingLeft=3;spacingRight=3;rotatable=0;labelPosition=right;points=[];portConstraint=eastwest;" parent="zkfFHV4jXpPFQw0GAbJ--17" vertex="1">
          <mxGeometry y="364" width="192" height="20" as="geometry" />
        </mxCell>
        <mxCell id="zkfFHV4jXpPFQw0GAbJ--26" value="" style="endArrow=none;shadow=0;strokeWidth=1;rounded=0;endFill=0;edgeStyle=elbowEdgeStyle;elbow=vertical;" parent="WIyWlLk6GJQsqaUBKTNV-1" source="zkfFHV4jXpPFQw0GAbJ--0" target="zkfFHV4jXpPFQw0GAbJ--17" edge="1">
          <mxGeometry x="0.5" y="41" relative="1" as="geometry">
            <mxPoint x="380" y="192" as="sourcePoint" />
            <mxPoint x="540" y="192" as="targetPoint" />
            <mxPoint x="-40" y="32" as="offset" />
          </mxGeometry>
        </mxCell>
        <mxCell id="zkfFHV4jXpPFQw0GAbJ--27" value="1" style="resizable=0;align=left;verticalAlign=bottom;labelBackgroundColor=none;fontSize=16;" parent="zkfFHV4jXpPFQw0GAbJ--26" connectable="0" vertex="1">
          <mxGeometry x="-1" relative="1" as="geometry">
            <mxPoint y="4" as="offset" />
          </mxGeometry>
        </mxCell>
        <mxCell id="zkfFHV4jXpPFQw0GAbJ--28" value="0..*" style="resizable=0;align=right;verticalAlign=bottom;labelBackgroundColor=none;fontSize=16;" parent="zkfFHV4jXpPFQw0GAbJ--26" connectable="0" vertex="1">
          <mxGeometry x="1" relative="1" as="geometry">
            <mxPoint x="-7" y="4" as="offset" />
          </mxGeometry>
        </mxCell>
        <mxCell id="ZJe5yLON-QLYzdqqWPnC-4" value="Have" style="edgeLabel;html=1;align=center;verticalAlign=middle;resizable=0;points=[];" parent="zkfFHV4jXpPFQw0GAbJ--26" vertex="1" connectable="0">
          <mxGeometry x="-0.1429" y="-2" relative="1" as="geometry">
            <mxPoint as="offset" />
          </mxGeometry>
        </mxCell>
        <mxCell id="tGMAhIrGCzKoIyGZds5J-3" value="ExtraWork" style="swimlane;fontStyle=2;align=center;verticalAlign=top;childLayout=stackLayout;horizontal=1;startSize=26;horizontalStack=0;resizeParent=1;resizeLast=0;collapsible=1;marginBottom=0;rounded=0;shadow=0;strokeWidth=1;fillColor=#f8cecc;strokeColor=#b85450;" parent="WIyWlLk6GJQsqaUBKTNV-1" vertex="1">
          <mxGeometry x="690" y="10" width="192" height="160" as="geometry">
            <mxRectangle x="550" y="140" width="160" height="26" as="alternateBounds" />
          </mxGeometry>
        </mxCell>
        <mxCell id="tGMAhIrGCzKoIyGZds5J-4" value="id: Integer" style="text;align=left;verticalAlign=top;spacingLeft=4;spacingRight=4;overflow=hidden;rotatable=0;points=[[0,0.5],[1,0.5]];portConstraint=eastwest;" parent="tGMAhIrGCzKoIyGZds5J-3" vertex="1">
          <mxGeometry y="26" width="192" height="26" as="geometry" />
        </mxCell>
        <mxCell id="tGMAhIrGCzKoIyGZds5J-8" value="status: String" style="text;align=left;verticalAlign=top;spacingLeft=4;spacingRight=4;overflow=hidden;rotatable=0;points=[[0,0.5],[1,0.5]];portConstraint=eastwest;rounded=0;shadow=0;html=0;" parent="tGMAhIrGCzKoIyGZds5J-3" vertex="1">
          <mxGeometry y="52" width="192" height="26" as="geometry" />
        </mxCell>
        <mxCell id="tGMAhIrGCzKoIyGZds5J-31" value="startTime: Date" style="text;align=left;verticalAlign=top;spacingLeft=4;spacingRight=4;overflow=hidden;rotatable=0;points=[[0,0.5],[1,0.5]];portConstraint=eastwest;rounded=0;shadow=0;html=0;" parent="tGMAhIrGCzKoIyGZds5J-3" vertex="1">
          <mxGeometry y="78" width="192" height="26" as="geometry" />
        </mxCell>
        <mxCell id="tGMAhIrGCzKoIyGZds5J-32" value="endTime: Date" style="text;align=left;verticalAlign=top;spacingLeft=4;spacingRight=4;overflow=hidden;rotatable=0;points=[[0,0.5],[1,0.5]];portConstraint=eastwest;rounded=0;shadow=0;html=0;" parent="tGMAhIrGCzKoIyGZds5J-3" vertex="1">
          <mxGeometry y="104" width="192" height="26" as="geometry" />
        </mxCell>
        <mxCell id="tGMAhIrGCzKoIyGZds5J-13" value="" style="line;html=1;strokeWidth=1;align=left;verticalAlign=middle;spacingTop=-1;spacingLeft=3;spacingRight=3;rotatable=0;labelPosition=right;points=[];portConstraint=eastwest;" parent="tGMAhIrGCzKoIyGZds5J-3" vertex="1">
          <mxGeometry y="130" width="192" height="30" as="geometry" />
        </mxCell>
        <mxCell id="tGMAhIrGCzKoIyGZds5J-64" value="Tag" style="swimlane;fontStyle=2;align=center;verticalAlign=top;childLayout=stackLayout;horizontal=1;startSize=26;horizontalStack=0;resizeParent=1;resizeLast=0;collapsible=1;marginBottom=0;rounded=0;shadow=0;strokeWidth=1;fillColor=#f8cecc;strokeColor=#b85450;" parent="WIyWlLk6GJQsqaUBKTNV-1" vertex="1">
          <mxGeometry x="490" y="480" width="192" height="120" as="geometry">
            <mxRectangle x="550" y="140" width="160" height="26" as="alternateBounds" />
          </mxGeometry>
        </mxCell>
        <mxCell id="tGMAhIrGCzKoIyGZds5J-65" value="id: Integer" style="text;align=left;verticalAlign=top;spacingLeft=4;spacingRight=4;overflow=hidden;rotatable=0;points=[[0,0.5],[1,0.5]];portConstraint=eastwest;" parent="tGMAhIrGCzKoIyGZds5J-64" vertex="1">
          <mxGeometry y="26" width="192" height="26" as="geometry" />
        </mxCell>
        <mxCell id="tGMAhIrGCzKoIyGZds5J-66" value="tagName: String" style="text;align=left;verticalAlign=top;spacingLeft=4;spacingRight=4;overflow=hidden;rotatable=0;points=[[0,0.5],[1,0.5]];portConstraint=eastwest;rounded=0;shadow=0;html=0;" parent="tGMAhIrGCzKoIyGZds5J-64" vertex="1">
          <mxGeometry y="52" width="192" height="26" as="geometry" />
        </mxCell>
        <mxCell id="tGMAhIrGCzKoIyGZds5J-79" value="colorCode: String" style="text;align=left;verticalAlign=top;spacingLeft=4;spacingRight=4;overflow=hidden;rotatable=0;points=[[0,0.5],[1,0.5]];portConstraint=eastwest;rounded=0;shadow=0;html=0;" parent="tGMAhIrGCzKoIyGZds5J-64" vertex="1">
          <mxGeometry y="78" width="192" height="26" as="geometry" />
        </mxCell>
        <mxCell id="tGMAhIrGCzKoIyGZds5J-70" value="" style="line;html=1;strokeWidth=1;align=left;verticalAlign=middle;spacingTop=-1;spacingLeft=3;spacingRight=3;rotatable=0;labelPosition=right;points=[];portConstraint=eastwest;" parent="tGMAhIrGCzKoIyGZds5J-64" vertex="1">
          <mxGeometry y="104" width="192" height="6" as="geometry" />
        </mxCell>
        <mxCell id="tGMAhIrGCzKoIyGZds5J-72" value="Project" style="swimlane;fontStyle=2;align=center;verticalAlign=top;childLayout=stackLayout;horizontal=1;startSize=26;horizontalStack=0;resizeParent=1;resizeLast=0;collapsible=1;marginBottom=0;rounded=0;shadow=0;strokeWidth=1;fillColor=#f8cecc;strokeColor=#b85450;" parent="WIyWlLk6GJQsqaUBKTNV-1" vertex="1">
          <mxGeometry x="690" y="240" width="192" height="150" as="geometry">
            <mxRectangle x="550" y="140" width="160" height="26" as="alternateBounds" />
          </mxGeometry>
        </mxCell>
        <mxCell id="tGMAhIrGCzKoIyGZds5J-73" value="id: Integer" style="text;align=left;verticalAlign=top;spacingLeft=4;spacingRight=4;overflow=hidden;rotatable=0;points=[[0,0.5],[1,0.5]];portConstraint=eastwest;" parent="tGMAhIrGCzKoIyGZds5J-72" vertex="1">
          <mxGeometry y="26" width="192" height="26" as="geometry" />
        </mxCell>
        <mxCell id="tGMAhIrGCzKoIyGZds5J-74" value="projectName: String" style="text;align=left;verticalAlign=top;spacingLeft=4;spacingRight=4;overflow=hidden;rotatable=0;points=[[0,0.5],[1,0.5]];portConstraint=eastwest;rounded=0;shadow=0;html=0;" parent="tGMAhIrGCzKoIyGZds5J-72" vertex="1">
          <mxGeometry y="52" width="192" height="26" as="geometry" />
        </mxCell>
        <mxCell id="tGMAhIrGCzKoIyGZds5J-75" value="colorCode: String" style="text;align=left;verticalAlign=top;spacingLeft=4;spacingRight=4;overflow=hidden;rotatable=0;points=[[0,0.5],[1,0.5]];portConstraint=eastwest;rounded=0;shadow=0;html=0;" parent="tGMAhIrGCzKoIyGZds5J-72" vertex="1">
          <mxGeometry y="78" width="192" height="26" as="geometry" />
        </mxCell>
        <mxCell id="tGMAhIrGCzKoIyGZds5J-84" value="iconUrl: String" style="text;align=left;verticalAlign=top;spacingLeft=4;spacingRight=4;overflow=hidden;rotatable=0;points=[[0,0.5],[1,0.5]];portConstraint=eastwest;rounded=0;shadow=0;html=0;" parent="tGMAhIrGCzKoIyGZds5J-72" vertex="1">
          <mxGeometry y="104" width="192" height="26" as="geometry" />
        </mxCell>
        <mxCell id="tGMAhIrGCzKoIyGZds5J-78" value="" style="line;html=1;strokeWidth=1;align=left;verticalAlign=middle;spacingTop=-1;spacingLeft=3;spacingRight=3;rotatable=0;labelPosition=right;points=[];portConstraint=eastwest;" parent="tGMAhIrGCzKoIyGZds5J-72" vertex="1">
          <mxGeometry y="130" width="192" height="10" as="geometry" />
        </mxCell>
        <mxCell id="tGMAhIrGCzKoIyGZds5J-80" value="" style="endArrow=none;shadow=0;strokeWidth=1;rounded=0;endFill=0;edgeStyle=elbowEdgeStyle;elbow=vertical;entryX=0.5;entryY=1;entryDx=0;entryDy=0;exitX=0.5;exitY=0;exitDx=0;exitDy=0;fillColor=#f8cecc;strokeColor=#b85450;" parent="WIyWlLk6GJQsqaUBKTNV-1" source="tGMAhIrGCzKoIyGZds5J-64" target="zkfFHV4jXpPFQw0GAbJ--17" edge="1">
          <mxGeometry x="0.5" y="41" relative="1" as="geometry">
            <mxPoint x="420" y="490" as="sourcePoint" />
            <mxPoint x="560" y="490" as="targetPoint" />
            <mxPoint x="-40" y="32" as="offset" />
          </mxGeometry>
        </mxCell>
        <mxCell id="tGMAhIrGCzKoIyGZds5J-81" value="0..*" style="resizable=0;align=left;verticalAlign=bottom;labelBackgroundColor=none;fontSize=16;" parent="tGMAhIrGCzKoIyGZds5J-80" connectable="0" vertex="1">
          <mxGeometry x="-1" relative="1" as="geometry">
            <mxPoint as="offset" />
          </mxGeometry>
        </mxCell>
        <mxCell id="tGMAhIrGCzKoIyGZds5J-82" value="0..*" style="resizable=0;align=right;verticalAlign=bottom;labelBackgroundColor=none;fontSize=16;" parent="tGMAhIrGCzKoIyGZds5J-80" connectable="0" vertex="1">
          <mxGeometry x="1" relative="1" as="geometry">
            <mxPoint x="-1" y="24" as="offset" />
          </mxGeometry>
        </mxCell>
        <mxCell id="tGMAhIrGCzKoIyGZds5J-85" value="" style="endArrow=none;shadow=0;strokeWidth=1;rounded=0;endFill=0;edgeStyle=elbowEdgeStyle;elbow=vertical;entryX=0;entryY=0.5;entryDx=0;entryDy=0;exitX=0.75;exitY=1;exitDx=0;exitDy=0;" parent="WIyWlLk6GJQsqaUBKTNV-1" source="zkfFHV4jXpPFQw0GAbJ--17" target="tGMAhIrGCzKoIyGZds5J-75" edge="1">
          <mxGeometry x="0.5" y="41" relative="1" as="geometry">
            <mxPoint x="602" y="320" as="sourcePoint" />
            <mxPoint x="690" y="342" as="targetPoint" />
            <mxPoint x="-40" y="32" as="offset" />
            <Array as="points">
              <mxPoint x="650" y="320" />
            </Array>
          </mxGeometry>
        </mxCell>
        <mxCell id="tGMAhIrGCzKoIyGZds5J-86" value="0..*" style="resizable=0;align=left;verticalAlign=bottom;labelBackgroundColor=none;fontSize=16;" parent="tGMAhIrGCzKoIyGZds5J-85" connectable="0" vertex="1">
          <mxGeometry x="-1" relative="1" as="geometry">
            <mxPoint x="-1" y="47" as="offset" />
          </mxGeometry>
        </mxCell>
        <mxCell id="tGMAhIrGCzKoIyGZds5J-87" value="1" style="resizable=0;align=right;verticalAlign=bottom;labelBackgroundColor=none;fontSize=16;" parent="tGMAhIrGCzKoIyGZds5J-85" connectable="0" vertex="1">
          <mxGeometry x="1" relative="1" as="geometry">
            <mxPoint y="10" as="offset" />
          </mxGeometry>
        </mxCell>
        <mxCell id="tGMAhIrGCzKoIyGZds5J-88" value="Report" style="swimlane;fontStyle=2;align=center;verticalAlign=top;childLayout=stackLayout;horizontal=1;startSize=26;horizontalStack=0;resizeParent=1;resizeLast=0;collapsible=1;marginBottom=0;rounded=0;shadow=0;strokeWidth=1;fillColor=#f8cecc;strokeColor=#b85450;" parent="WIyWlLk6GJQsqaUBKTNV-1" vertex="1">
          <mxGeometry x="122" y="-300" width="136" height="254" as="geometry">
            <mxRectangle x="550" y="140" width="160" height="26" as="alternateBounds" />
          </mxGeometry>
        </mxCell>
        <mxCell id="tGMAhIrGCzKoIyGZds5J-89" value="id: Integer" style="text;align=left;verticalAlign=top;spacingLeft=4;spacingRight=4;overflow=hidden;rotatable=0;points=[[0,0.5],[1,0.5]];portConstraint=eastwest;" parent="tGMAhIrGCzKoIyGZds5J-88" vertex="1">
          <mxGeometry y="26" width="136" height="26" as="geometry" />
        </mxCell>
        <mxCell id="tGMAhIrGCzKoIyGZds5J-104" value="email: String" style="text;align=left;verticalAlign=top;spacingLeft=4;spacingRight=4;overflow=hidden;rotatable=0;points=[[0,0.5],[1,0.5]];portConstraint=eastwest;" parent="tGMAhIrGCzKoIyGZds5J-88" vertex="1">
          <mxGeometry y="52" width="136" height="26" as="geometry" />
        </mxCell>
        <mxCell id="tGMAhIrGCzKoIyGZds5J-105" value="phone: String" style="text;align=left;verticalAlign=top;spacingLeft=4;spacingRight=4;overflow=hidden;rotatable=0;points=[[0,0.5],[1,0.5]];portConstraint=eastwest;" parent="tGMAhIrGCzKoIyGZds5J-88" vertex="1">
          <mxGeometry y="78" width="136" height="26" as="geometry" />
        </mxCell>
        <mxCell id="tGMAhIrGCzKoIyGZds5J-90" value="title: String" style="text;align=left;verticalAlign=top;spacingLeft=4;spacingRight=4;overflow=hidden;rotatable=0;points=[[0,0.5],[1,0.5]];portConstraint=eastwest;rounded=0;shadow=0;html=0;" parent="tGMAhIrGCzKoIyGZds5J-88" vertex="1">
          <mxGeometry y="104" width="136" height="26" as="geometry" />
        </mxCell>
        <mxCell id="tGMAhIrGCzKoIyGZds5J-91" value="content: String" style="text;align=left;verticalAlign=top;spacingLeft=4;spacingRight=4;overflow=hidden;rotatable=0;points=[[0,0.5],[1,0.5]];portConstraint=eastwest;rounded=0;shadow=0;html=0;" parent="tGMAhIrGCzKoIyGZds5J-88" vertex="1">
          <mxGeometry y="130" width="136" height="26" as="geometry" />
        </mxCell>
        <mxCell id="tGMAhIrGCzKoIyGZds5J-110" value="status: String" style="text;align=left;verticalAlign=top;spacingLeft=4;spacingRight=4;overflow=hidden;rotatable=0;points=[[0,0.5],[1,0.5]];portConstraint=eastwest;rounded=0;shadow=0;html=0;" parent="tGMAhIrGCzKoIyGZds5J-88" vertex="1">
          <mxGeometry y="156" width="136" height="26" as="geometry" />
        </mxCell>
        <mxCell id="5_867ANT87SpvfsRSU_C-30" value="createdDate: Date" style="text;align=left;verticalAlign=top;spacingLeft=4;spacingRight=4;overflow=hidden;rotatable=0;points=[[0,0.5],[1,0.5]];portConstraint=eastwest;rounded=0;shadow=0;html=0;" parent="tGMAhIrGCzKoIyGZds5J-88" vertex="1">
          <mxGeometry y="182" width="136" height="26" as="geometry" />
        </mxCell>
        <mxCell id="5_867ANT87SpvfsRSU_C-13" value="type: String" style="text;align=left;verticalAlign=top;spacingLeft=4;spacingRight=4;overflow=hidden;rotatable=0;points=[[0,0.5],[1,0.5]];portConstraint=eastwest;rounded=0;shadow=0;html=0;" parent="tGMAhIrGCzKoIyGZds5J-88" vertex="1">
          <mxGeometry y="208" width="136" height="26" as="geometry" />
        </mxCell>
        <mxCell id="tGMAhIrGCzKoIyGZds5J-92" value="" style="line;html=1;strokeWidth=1;align=left;verticalAlign=middle;spacingTop=-1;spacingLeft=3;spacingRight=3;rotatable=0;labelPosition=right;points=[];portConstraint=eastwest;" parent="tGMAhIrGCzKoIyGZds5J-88" vertex="1">
          <mxGeometry y="234" width="136" height="20" as="geometry" />
        </mxCell>
        <mxCell id="tGMAhIrGCzKoIyGZds5J-93" value="Folder" style="swimlane;fontStyle=2;align=center;verticalAlign=top;childLayout=stackLayout;horizontal=1;startSize=26;horizontalStack=0;resizeParent=1;resizeLast=0;collapsible=1;marginBottom=0;rounded=0;shadow=0;strokeWidth=1;fillColor=#f8cecc;strokeColor=#b85450;" parent="WIyWlLk6GJQsqaUBKTNV-1" vertex="1">
          <mxGeometry x="690" y="450" width="192" height="150" as="geometry">
            <mxRectangle x="550" y="140" width="160" height="26" as="alternateBounds" />
          </mxGeometry>
        </mxCell>
        <mxCell id="tGMAhIrGCzKoIyGZds5J-94" value="id: Integer" style="text;align=left;verticalAlign=top;spacingLeft=4;spacingRight=4;overflow=hidden;rotatable=0;points=[[0,0.5],[1,0.5]];portConstraint=eastwest;" parent="tGMAhIrGCzKoIyGZds5J-93" vertex="1">
          <mxGeometry y="26" width="192" height="26" as="geometry" />
        </mxCell>
        <mxCell id="tGMAhIrGCzKoIyGZds5J-95" value="folderName: String" style="text;align=left;verticalAlign=top;spacingLeft=4;spacingRight=4;overflow=hidden;rotatable=0;points=[[0,0.5],[1,0.5]];portConstraint=eastwest;rounded=0;shadow=0;html=0;" parent="tGMAhIrGCzKoIyGZds5J-93" vertex="1">
          <mxGeometry y="52" width="192" height="26" as="geometry" />
        </mxCell>
        <mxCell id="tGMAhIrGCzKoIyGZds5J-96" value="colorCode: String" style="text;align=left;verticalAlign=top;spacingLeft=4;spacingRight=4;overflow=hidden;rotatable=0;points=[[0,0.5],[1,0.5]];portConstraint=eastwest;rounded=0;shadow=0;html=0;" parent="tGMAhIrGCzKoIyGZds5J-93" vertex="1">
          <mxGeometry y="78" width="192" height="26" as="geometry" />
        </mxCell>
        <mxCell id="tGMAhIrGCzKoIyGZds5J-97" value="iconUrl: String" style="text;align=left;verticalAlign=top;spacingLeft=4;spacingRight=4;overflow=hidden;rotatable=0;points=[[0,0.5],[1,0.5]];portConstraint=eastwest;rounded=0;shadow=0;html=0;" parent="tGMAhIrGCzKoIyGZds5J-93" vertex="1">
          <mxGeometry y="104" width="192" height="26" as="geometry" />
        </mxCell>
        <mxCell id="tGMAhIrGCzKoIyGZds5J-98" value="" style="line;html=1;strokeWidth=1;align=left;verticalAlign=middle;spacingTop=-1;spacingLeft=3;spacingRight=3;rotatable=0;labelPosition=right;points=[];portConstraint=eastwest;" parent="tGMAhIrGCzKoIyGZds5J-93" vertex="1">
          <mxGeometry y="130" width="192" height="10" as="geometry" />
        </mxCell>
        <mxCell id="tGMAhIrGCzKoIyGZds5J-99" value="" style="endArrow=none;shadow=0;strokeWidth=1;rounded=0;endFill=0;edgeStyle=elbowEdgeStyle;elbow=vertical;entryX=0.5;entryY=1;entryDx=0;entryDy=0;exitX=0.5;exitY=0;exitDx=0;exitDy=0;" parent="WIyWlLk6GJQsqaUBKTNV-1" source="tGMAhIrGCzKoIyGZds5J-93" target="tGMAhIrGCzKoIyGZds5J-72" edge="1">
          <mxGeometry x="0.5" y="41" relative="1" as="geometry">
            <mxPoint x="780" y="480" as="sourcePoint" />
            <mxPoint x="780" y="410" as="targetPoint" />
            <mxPoint x="-40" y="32" as="offset" />
          </mxGeometry>
        </mxCell>
        <mxCell id="tGMAhIrGCzKoIyGZds5J-100" value="1" style="resizable=0;align=left;verticalAlign=bottom;labelBackgroundColor=none;fontSize=16;" parent="tGMAhIrGCzKoIyGZds5J-99" connectable="0" vertex="1">
          <mxGeometry x="-1" relative="1" as="geometry">
            <mxPoint as="offset" />
          </mxGeometry>
        </mxCell>
        <mxCell id="tGMAhIrGCzKoIyGZds5J-101" value="0..*" style="resizable=0;align=right;verticalAlign=bottom;labelBackgroundColor=none;fontSize=16;" parent="tGMAhIrGCzKoIyGZds5J-99" connectable="0" vertex="1">
          <mxGeometry x="1" relative="1" as="geometry">
            <mxPoint x="-1" y="24" as="offset" />
          </mxGeometry>
        </mxCell>
        <mxCell id="tGMAhIrGCzKoIyGZds5J-107" value="" style="endArrow=none;shadow=0;strokeWidth=1;rounded=0;endFill=0;edgeStyle=elbowEdgeStyle;elbow=vertical;exitX=0.5;exitY=0;exitDx=0;exitDy=0;entryX=0.5;entryY=1;entryDx=0;entryDy=0;" parent="WIyWlLk6GJQsqaUBKTNV-1" source="zkfFHV4jXpPFQw0GAbJ--0" target="tGMAhIrGCzKoIyGZds5J-88" edge="1">
          <mxGeometry x="0.5" y="41" relative="1" as="geometry">
            <mxPoint x="258" y="30.330000000000013" as="sourcePoint" />
            <mxPoint x="398" y="30.330000000000013" as="targetPoint" />
            <mxPoint x="-40" y="32" as="offset" />
          </mxGeometry>
        </mxCell>
        <mxCell id="tGMAhIrGCzKoIyGZds5J-108" value="1" style="resizable=0;align=left;verticalAlign=bottom;labelBackgroundColor=none;fontSize=16;" parent="tGMAhIrGCzKoIyGZds5J-107" connectable="0" vertex="1">
          <mxGeometry x="-1" relative="1" as="geometry">
            <mxPoint x="3" y="-1" as="offset" />
          </mxGeometry>
        </mxCell>
        <mxCell id="tGMAhIrGCzKoIyGZds5J-109" value="0..*" style="resizable=0;align=right;verticalAlign=bottom;labelBackgroundColor=none;fontSize=16;" parent="tGMAhIrGCzKoIyGZds5J-107" connectable="0" vertex="1">
          <mxGeometry x="1" relative="1" as="geometry">
            <mxPoint x="-3" y="23" as="offset" />
          </mxGeometry>
        </mxCell>
        <mxCell id="tGMAhIrGCzKoIyGZds5J-111" value="SoundConcentration" style="swimlane;fontStyle=2;align=center;verticalAlign=top;childLayout=stackLayout;horizontal=1;startSize=26;horizontalStack=0;resizeParent=1;resizeLast=0;collapsible=1;marginBottom=0;rounded=0;shadow=0;strokeWidth=1;fillColor=#f8cecc;strokeColor=#b85450;" parent="WIyWlLk6GJQsqaUBKTNV-1" vertex="1">
          <mxGeometry x="320" y="506" width="160" height="154" as="geometry">
            <mxRectangle x="550" y="140" width="160" height="26" as="alternateBounds" />
          </mxGeometry>
        </mxCell>
        <mxCell id="tGMAhIrGCzKoIyGZds5J-112" value="id: Integer" style="text;align=left;verticalAlign=top;spacingLeft=4;spacingRight=4;overflow=hidden;rotatable=0;points=[[0,0.5],[1,0.5]];portConstraint=eastwest;" parent="tGMAhIrGCzKoIyGZds5J-111" vertex="1">
          <mxGeometry y="26" width="160" height="26" as="geometry" />
        </mxCell>
        <mxCell id="tGMAhIrGCzKoIyGZds5J-113" value="nameSound: String" style="text;align=left;verticalAlign=top;spacingLeft=4;spacingRight=4;overflow=hidden;rotatable=0;points=[[0,0.5],[1,0.5]];portConstraint=eastwest;" parent="tGMAhIrGCzKoIyGZds5J-111" vertex="1">
          <mxGeometry y="52" width="160" height="26" as="geometry" />
        </mxCell>
        <mxCell id="tGMAhIrGCzKoIyGZds5J-114" value="url: String" style="text;align=left;verticalAlign=top;spacingLeft=4;spacingRight=4;overflow=hidden;rotatable=0;points=[[0,0.5],[1,0.5]];portConstraint=eastwest;" parent="tGMAhIrGCzKoIyGZds5J-111" vertex="1">
          <mxGeometry y="78" width="160" height="26" as="geometry" />
        </mxCell>
        <mxCell id="tGMAhIrGCzKoIyGZds5J-124" value="isDefault: Boolean" style="text;align=left;verticalAlign=top;spacingLeft=4;spacingRight=4;overflow=hidden;rotatable=0;points=[[0,0.5],[1,0.5]];portConstraint=eastwest;" parent="tGMAhIrGCzKoIyGZds5J-111" vertex="1">
          <mxGeometry y="104" width="160" height="26" as="geometry" />
        </mxCell>
        <mxCell id="tGMAhIrGCzKoIyGZds5J-119" value="" style="line;html=1;strokeWidth=1;align=left;verticalAlign=middle;spacingTop=-1;spacingLeft=3;spacingRight=3;rotatable=0;labelPosition=right;points=[];portConstraint=eastwest;" parent="tGMAhIrGCzKoIyGZds5J-111" vertex="1">
          <mxGeometry y="130" width="160" height="20" as="geometry" />
        </mxCell>
        <mxCell id="tGMAhIrGCzKoIyGZds5J-120" value="" style="endArrow=none;shadow=0;strokeWidth=1;rounded=0;endFill=0;edgeStyle=elbowEdgeStyle;elbow=vertical;entryX=0.75;entryY=1;entryDx=0;entryDy=0;exitX=0.5;exitY=0;exitDx=0;exitDy=0;" parent="WIyWlLk6GJQsqaUBKTNV-1" source="tGMAhIrGCzKoIyGZds5J-111" target="zkfFHV4jXpPFQw0GAbJ--0" edge="1">
          <mxGeometry x="0.5" y="41" relative="1" as="geometry">
            <mxPoint x="300" y="580" as="sourcePoint" />
            <mxPoint x="300" y="510" as="targetPoint" />
            <mxPoint x="-40" y="32" as="offset" />
          </mxGeometry>
        </mxCell>
        <mxCell id="tGMAhIrGCzKoIyGZds5J-121" value="0..*" style="resizable=0;align=left;verticalAlign=bottom;labelBackgroundColor=none;fontSize=16;" parent="tGMAhIrGCzKoIyGZds5J-120" connectable="0" vertex="1">
          <mxGeometry x="-1" relative="1" as="geometry">
            <mxPoint x="2" y="-1" as="offset" />
          </mxGeometry>
        </mxCell>
        <mxCell id="tGMAhIrGCzKoIyGZds5J-122" value="0, 1" style="resizable=0;align=right;verticalAlign=bottom;labelBackgroundColor=none;fontSize=16;" parent="tGMAhIrGCzKoIyGZds5J-120" connectable="0" vertex="1">
          <mxGeometry x="1" relative="1" as="geometry">
            <mxPoint x="-3" y="25" as="offset" />
          </mxGeometry>
        </mxCell>
        <mxCell id="tGMAhIrGCzKoIyGZds5J-141" value="" style="endArrow=none;shadow=0;strokeWidth=1;rounded=0;endFill=0;edgeStyle=elbowEdgeStyle;elbow=vertical;entryX=0;entryY=0.5;entryDx=0;entryDy=0;exitX=1;exitY=0.5;exitDx=0;exitDy=0;fillColor=#f8cecc;strokeColor=#b85450;" parent="WIyWlLk6GJQsqaUBKTNV-1" source="tGMAhIrGCzKoIyGZds5J-130" target="MLxWAp-ao5NovIpb98pb-13" edge="1">
          <mxGeometry x="0.5" y="41" relative="1" as="geometry">
            <mxPoint x="40" y="320" as="sourcePoint" />
            <mxPoint x="40" y="260" as="targetPoint" />
            <mxPoint x="-40" y="32" as="offset" />
          </mxGeometry>
        </mxCell>
        <mxCell id="tGMAhIrGCzKoIyGZds5J-142" value="0..*" style="resizable=0;align=left;verticalAlign=bottom;labelBackgroundColor=none;fontSize=16;" parent="tGMAhIrGCzKoIyGZds5J-141" connectable="0" vertex="1">
          <mxGeometry x="-1" relative="1" as="geometry">
            <mxPoint x="4" y="76" as="offset" />
          </mxGeometry>
        </mxCell>
        <mxCell id="tGMAhIrGCzKoIyGZds5J-143" value="1..*" style="resizable=0;align=right;verticalAlign=bottom;labelBackgroundColor=none;fontSize=16;" parent="tGMAhIrGCzKoIyGZds5J-141" connectable="0" vertex="1">
          <mxGeometry x="1" relative="1" as="geometry">
            <mxPoint x="-3" y="-55" as="offset" />
          </mxGeometry>
        </mxCell>
        <mxCell id="tGMAhIrGCzKoIyGZds5J-126" value="Study Group" style="swimlane;fontStyle=2;align=center;verticalAlign=top;childLayout=stackLayout;horizontal=1;startSize=26;horizontalStack=0;resizeParent=1;resizeLast=0;collapsible=1;marginBottom=0;rounded=0;shadow=0;strokeWidth=1;fillColor=#f8cecc;strokeColor=#b85450;" parent="WIyWlLk6GJQsqaUBKTNV-1" vertex="1">
          <mxGeometry x="-150" y="30" width="136" height="268" as="geometry">
            <mxRectangle x="550" y="140" width="160" height="26" as="alternateBounds" />
          </mxGeometry>
        </mxCell>
        <mxCell id="tGMAhIrGCzKoIyGZds5J-127" value="id: Integer" style="text;align=left;verticalAlign=top;spacingLeft=4;spacingRight=4;overflow=hidden;rotatable=0;points=[[0,0.5],[1,0.5]];portConstraint=eastwest;" parent="tGMAhIrGCzKoIyGZds5J-126" vertex="1">
          <mxGeometry y="26" width="136" height="26" as="geometry" />
        </mxCell>
        <mxCell id="tGMAhIrGCzKoIyGZds5J-137" value="code: String" style="text;align=left;verticalAlign=top;spacingLeft=4;spacingRight=4;overflow=hidden;rotatable=0;points=[[0,0.5],[1,0.5]];portConstraint=eastwest;" parent="tGMAhIrGCzKoIyGZds5J-126" vertex="1">
          <mxGeometry y="52" width="136" height="26" as="geometry" />
        </mxCell>
        <mxCell id="tGMAhIrGCzKoIyGZds5J-129" value="nameGroup: String" style="text;align=left;verticalAlign=top;spacingLeft=4;spacingRight=4;overflow=hidden;rotatable=0;points=[[0,0.5],[1,0.5]];portConstraint=eastwest;" parent="tGMAhIrGCzKoIyGZds5J-126" vertex="1">
          <mxGeometry y="78" width="136" height="26" as="geometry" />
        </mxCell>
        <mxCell id="tGMAhIrGCzKoIyGZds5J-130" value="description: String" style="text;align=left;verticalAlign=top;spacingLeft=4;spacingRight=4;overflow=hidden;rotatable=0;points=[[0,0.5],[1,0.5]];portConstraint=eastwest;" parent="tGMAhIrGCzKoIyGZds5J-126" vertex="1">
          <mxGeometry y="104" width="136" height="26" as="geometry" />
        </mxCell>
        <mxCell id="tGMAhIrGCzKoIyGZds5J-131" value="totalMember: Integer" style="text;align=left;verticalAlign=top;spacingLeft=4;spacingRight=4;overflow=hidden;rotatable=0;points=[[0,0.5],[1,0.5]];portConstraint=eastwest;rounded=0;shadow=0;html=0;" parent="tGMAhIrGCzKoIyGZds5J-126" vertex="1">
          <mxGeometry y="130" width="136" height="26" as="geometry" />
        </mxCell>
        <mxCell id="tGMAhIrGCzKoIyGZds5J-136" value="totalTimeFocus: Integer" style="text;align=left;verticalAlign=top;spacingLeft=4;spacingRight=4;overflow=hidden;rotatable=0;points=[[0,0.5],[1,0.5]];portConstraint=eastwest;rounded=0;shadow=0;html=0;" parent="tGMAhIrGCzKoIyGZds5J-126" vertex="1">
          <mxGeometry y="156" width="136" height="26" as="geometry" />
        </mxCell>
        <mxCell id="tGMAhIrGCzKoIyGZds5J-132" value="imageUrl: String" style="text;align=left;verticalAlign=top;spacingLeft=4;spacingRight=4;overflow=hidden;rotatable=0;points=[[0,0.5],[1,0.5]];portConstraint=eastwest;rounded=0;shadow=0;html=0;" parent="tGMAhIrGCzKoIyGZds5J-126" vertex="1">
          <mxGeometry y="182" width="136" height="26" as="geometry" />
        </mxCell>
        <mxCell id="13aqxsSrcnJj2Fvq4oas-0" value="createdDate: Date" style="text;align=left;verticalAlign=top;spacingLeft=4;spacingRight=4;overflow=hidden;rotatable=0;points=[[0,0.5],[1,0.5]];portConstraint=eastwest;rounded=0;shadow=0;html=0;" vertex="1" parent="tGMAhIrGCzKoIyGZds5J-126">
          <mxGeometry y="208" width="136" height="26" as="geometry" />
        </mxCell>
        <mxCell id="tGMAhIrGCzKoIyGZds5J-144" value="isPrivate: Boolean" style="text;align=left;verticalAlign=top;spacingLeft=4;spacingRight=4;overflow=hidden;rotatable=0;points=[[0,0.5],[1,0.5]];portConstraint=eastwest;rounded=0;shadow=0;html=0;" parent="tGMAhIrGCzKoIyGZds5J-126" vertex="1">
          <mxGeometry y="234" width="136" height="26" as="geometry" />
        </mxCell>
        <mxCell id="tGMAhIrGCzKoIyGZds5J-134" value="" style="line;html=1;strokeWidth=1;align=left;verticalAlign=middle;spacingTop=-1;spacingLeft=3;spacingRight=3;rotatable=0;labelPosition=right;points=[];portConstraint=eastwest;" parent="tGMAhIrGCzKoIyGZds5J-126" vertex="1">
          <mxGeometry y="260" width="136" height="8" as="geometry" />
        </mxCell>
        <mxCell id="tGMAhIrGCzKoIyGZds5J-149" value="Vote" style="swimlane;fontStyle=2;align=center;verticalAlign=top;childLayout=stackLayout;horizontal=1;startSize=26;horizontalStack=0;resizeParent=1;resizeLast=0;collapsible=1;marginBottom=0;rounded=0;shadow=0;strokeWidth=1;fillColor=#f8cecc;strokeColor=#b85450;" parent="WIyWlLk6GJQsqaUBKTNV-1" vertex="1">
          <mxGeometry x="-350" y="80" width="136" height="170" as="geometry">
            <mxRectangle x="550" y="140" width="160" height="26" as="alternateBounds" />
          </mxGeometry>
        </mxCell>
        <mxCell id="tGMAhIrGCzKoIyGZds5J-150" value="id: Integer" style="text;align=left;verticalAlign=top;spacingLeft=4;spacingRight=4;overflow=hidden;rotatable=0;points=[[0,0.5],[1,0.5]];portConstraint=eastwest;" parent="tGMAhIrGCzKoIyGZds5J-149" vertex="1">
          <mxGeometry y="26" width="136" height="26" as="geometry" />
        </mxCell>
        <mxCell id="tGMAhIrGCzKoIyGZds5J-151" value="title: String" style="text;align=left;verticalAlign=top;spacingLeft=4;spacingRight=4;overflow=hidden;rotatable=0;points=[[0,0.5],[1,0.5]];portConstraint=eastwest;" parent="tGMAhIrGCzKoIyGZds5J-149" vertex="1">
          <mxGeometry y="52" width="136" height="26" as="geometry" />
        </mxCell>
        <mxCell id="tGMAhIrGCzKoIyGZds5J-152" value="content: String" style="text;align=left;verticalAlign=top;spacingLeft=4;spacingRight=4;overflow=hidden;rotatable=0;points=[[0,0.5],[1,0.5]];portConstraint=eastwest;" parent="tGMAhIrGCzKoIyGZds5J-149" vertex="1">
          <mxGeometry y="78" width="136" height="26" as="geometry" />
        </mxCell>
        <mxCell id="tGMAhIrGCzKoIyGZds5J-153" value="createdDate: Date" style="text;align=left;verticalAlign=top;spacingLeft=4;spacingRight=4;overflow=hidden;rotatable=0;points=[[0,0.5],[1,0.5]];portConstraint=eastwest;" parent="tGMAhIrGCzKoIyGZds5J-149" vertex="1">
          <mxGeometry y="104" width="136" height="26" as="geometry" />
        </mxCell>
        <mxCell id="tGMAhIrGCzKoIyGZds5J-154" value="numberStar: Integer" style="text;align=left;verticalAlign=top;spacingLeft=4;spacingRight=4;overflow=hidden;rotatable=0;points=[[0,0.5],[1,0.5]];portConstraint=eastwest;rounded=0;shadow=0;html=0;" parent="tGMAhIrGCzKoIyGZds5J-149" vertex="1">
          <mxGeometry y="130" width="136" height="26" as="geometry" />
        </mxCell>
        <mxCell id="tGMAhIrGCzKoIyGZds5J-158" value="" style="line;html=1;strokeWidth=1;align=left;verticalAlign=middle;spacingTop=-1;spacingLeft=3;spacingRight=3;rotatable=0;labelPosition=right;points=[];portConstraint=eastwest;" parent="tGMAhIrGCzKoIyGZds5J-149" vertex="1">
          <mxGeometry y="156" width="136" height="8" as="geometry" />
        </mxCell>
        <mxCell id="tGMAhIrGCzKoIyGZds5J-159" value="" style="endArrow=none;shadow=0;strokeWidth=1;rounded=0;endFill=0;edgeStyle=elbowEdgeStyle;elbow=vertical;exitX=0.5;exitY=1;exitDx=0;exitDy=0;entryX=0;entryY=0.5;entryDx=0;entryDy=0;" parent="WIyWlLk6GJQsqaUBKTNV-1" source="tGMAhIrGCzKoIyGZds5J-149" target="MLxWAp-ao5NovIpb98pb-6" edge="1">
          <mxGeometry x="0.5" y="41" relative="1" as="geometry">
            <mxPoint x="20" y="330" as="sourcePoint" />
            <mxPoint x="70" y="310" as="targetPoint" />
            <mxPoint x="-40" y="32" as="offset" />
            <Array as="points">
              <mxPoint x="-80" y="307" />
            </Array>
          </mxGeometry>
        </mxCell>
        <mxCell id="tGMAhIrGCzKoIyGZds5J-160" value="0..*" style="resizable=0;align=left;verticalAlign=bottom;labelBackgroundColor=none;fontSize=16;" parent="tGMAhIrGCzKoIyGZds5J-159" connectable="0" vertex="1">
          <mxGeometry x="-1" relative="1" as="geometry">
            <mxPoint x="4" y="34" as="offset" />
          </mxGeometry>
        </mxCell>
        <mxCell id="tGMAhIrGCzKoIyGZds5J-161" value="1" style="resizable=0;align=right;verticalAlign=bottom;labelBackgroundColor=none;fontSize=16;" parent="tGMAhIrGCzKoIyGZds5J-159" connectable="0" vertex="1">
          <mxGeometry x="1" relative="1" as="geometry">
            <mxPoint x="-5" y="-2" as="offset" />
          </mxGeometry>
        </mxCell>
        <mxCell id="tGMAhIrGCzKoIyGZds5J-163" value="Theme" style="swimlane;fontStyle=2;align=center;verticalAlign=top;childLayout=stackLayout;horizontal=1;startSize=26;horizontalStack=0;resizeParent=1;resizeLast=0;collapsible=1;marginBottom=0;rounded=0;shadow=0;strokeWidth=1;fillColor=#f8cecc;strokeColor=#b85450;" parent="WIyWlLk6GJQsqaUBKTNV-1" vertex="1">
          <mxGeometry x="-470" y="270" width="160" height="150" as="geometry">
            <mxRectangle x="550" y="140" width="160" height="26" as="alternateBounds" />
          </mxGeometry>
        </mxCell>
        <mxCell id="tGMAhIrGCzKoIyGZds5J-164" value="id: Integer" style="text;align=left;verticalAlign=top;spacingLeft=4;spacingRight=4;overflow=hidden;rotatable=0;points=[[0,0.5],[1,0.5]];portConstraint=eastwest;" parent="tGMAhIrGCzKoIyGZds5J-163" vertex="1">
          <mxGeometry y="26" width="160" height="26" as="geometry" />
        </mxCell>
        <mxCell id="tGMAhIrGCzKoIyGZds5J-165" value="nameSound: String" style="text;align=left;verticalAlign=top;spacingLeft=4;spacingRight=4;overflow=hidden;rotatable=0;points=[[0,0.5],[1,0.5]];portConstraint=eastwest;" parent="tGMAhIrGCzKoIyGZds5J-163" vertex="1">
          <mxGeometry y="52" width="160" height="26" as="geometry" />
        </mxCell>
        <mxCell id="tGMAhIrGCzKoIyGZds5J-166" value="url: String" style="text;align=left;verticalAlign=top;spacingLeft=4;spacingRight=4;overflow=hidden;rotatable=0;points=[[0,0.5],[1,0.5]];portConstraint=eastwest;" parent="tGMAhIrGCzKoIyGZds5J-163" vertex="1">
          <mxGeometry y="78" width="160" height="26" as="geometry" />
        </mxCell>
        <mxCell id="tGMAhIrGCzKoIyGZds5J-167" value="isDefault: Boolean" style="text;align=left;verticalAlign=top;spacingLeft=4;spacingRight=4;overflow=hidden;rotatable=0;points=[[0,0.5],[1,0.5]];portConstraint=eastwest;" parent="tGMAhIrGCzKoIyGZds5J-163" vertex="1">
          <mxGeometry y="104" width="160" height="26" as="geometry" />
        </mxCell>
        <mxCell id="tGMAhIrGCzKoIyGZds5J-169" value="" style="line;html=1;strokeWidth=1;align=left;verticalAlign=middle;spacingTop=-1;spacingLeft=3;spacingRight=3;rotatable=0;labelPosition=right;points=[];portConstraint=eastwest;" parent="tGMAhIrGCzKoIyGZds5J-163" vertex="1">
          <mxGeometry y="130" width="160" height="20" as="geometry" />
        </mxCell>
        <mxCell id="tGMAhIrGCzKoIyGZds5J-170" value="" style="endArrow=none;shadow=0;strokeWidth=1;rounded=0;endFill=0;edgeStyle=elbowEdgeStyle;elbow=vertical;exitX=1;exitY=0.5;exitDx=0;exitDy=0;entryX=0;entryY=0.5;entryDx=0;entryDy=0;" parent="WIyWlLk6GJQsqaUBKTNV-1" source="tGMAhIrGCzKoIyGZds5J-165" target="MLxWAp-ao5NovIpb98pb-3" edge="1">
          <mxGeometry x="0.5" y="41" relative="1" as="geometry">
            <mxPoint x="30" y="570" as="sourcePoint" />
            <mxPoint x="40" y="380" as="targetPoint" />
            <mxPoint x="-40" y="32" as="offset" />
            <Array as="points">
              <mxPoint x="-100" y="350" />
              <mxPoint x="40" y="516" />
            </Array>
          </mxGeometry>
        </mxCell>
        <mxCell id="tGMAhIrGCzKoIyGZds5J-171" value="0..*" style="resizable=0;align=left;verticalAlign=bottom;labelBackgroundColor=none;fontSize=16;" parent="tGMAhIrGCzKoIyGZds5J-170" connectable="0" vertex="1">
          <mxGeometry x="-1" relative="1" as="geometry">
            <mxPoint x="3" y="11" as="offset" />
          </mxGeometry>
        </mxCell>
        <mxCell id="tGMAhIrGCzKoIyGZds5J-172" value="0, 1" style="resizable=0;align=right;verticalAlign=bottom;labelBackgroundColor=none;fontSize=16;" parent="tGMAhIrGCzKoIyGZds5J-170" connectable="0" vertex="1">
          <mxGeometry x="1" relative="1" as="geometry">
            <mxPoint x="-3" y="40" as="offset" />
          </mxGeometry>
        </mxCell>
        <mxCell id="tGMAhIrGCzKoIyGZds5J-177" value="PostForum" style="swimlane;fontStyle=2;align=center;verticalAlign=top;childLayout=stackLayout;horizontal=1;startSize=26;horizontalStack=0;resizeParent=1;resizeLast=0;collapsible=1;marginBottom=0;rounded=0;shadow=0;strokeWidth=1;fillColor=#f8cecc;strokeColor=#b85450;" parent="WIyWlLk6GJQsqaUBKTNV-1" vertex="1">
          <mxGeometry x="-230" y="370" width="160" height="346" as="geometry">
            <mxRectangle x="550" y="140" width="160" height="26" as="alternateBounds" />
          </mxGeometry>
        </mxCell>
        <mxCell id="tGMAhIrGCzKoIyGZds5J-178" value="id: Integer" style="text;align=left;verticalAlign=top;spacingLeft=4;spacingRight=4;overflow=hidden;rotatable=0;points=[[0,0.5],[1,0.5]];portConstraint=eastwest;" parent="tGMAhIrGCzKoIyGZds5J-177" vertex="1">
          <mxGeometry y="26" width="160" height="26" as="geometry" />
        </mxCell>
        <mxCell id="tGMAhIrGCzKoIyGZds5J-179" value="title: String" style="text;align=left;verticalAlign=top;spacingLeft=4;spacingRight=4;overflow=hidden;rotatable=0;points=[[0,0.5],[1,0.5]];portConstraint=eastwest;" parent="tGMAhIrGCzKoIyGZds5J-177" vertex="1">
          <mxGeometry y="52" width="160" height="26" as="geometry" />
        </mxCell>
        <mxCell id="tGMAhIrGCzKoIyGZds5J-180" value="content: String" style="text;align=left;verticalAlign=top;spacingLeft=4;spacingRight=4;overflow=hidden;rotatable=0;points=[[0,0.5],[1,0.5]];portConstraint=eastwest;" parent="tGMAhIrGCzKoIyGZds5J-177" vertex="1">
          <mxGeometry y="78" width="160" height="26" as="geometry" />
        </mxCell>
        <mxCell id="H2XDDkwPHoEkeBYI8tUK-4" value="tag: String" style="text;align=left;verticalAlign=top;spacingLeft=4;spacingRight=4;overflow=hidden;rotatable=0;points=[[0,0.5],[1,0.5]];portConstraint=eastwest;" parent="tGMAhIrGCzKoIyGZds5J-177" vertex="1">
          <mxGeometry y="104" width="160" height="26" as="geometry" />
        </mxCell>
        <mxCell id="tGMAhIrGCzKoIyGZds5J-181" value="imageUrl: String" style="text;align=left;verticalAlign=top;spacingLeft=4;spacingRight=4;overflow=hidden;rotatable=0;points=[[0,0.5],[1,0.5]];portConstraint=eastwest;" parent="tGMAhIrGCzKoIyGZds5J-177" vertex="1">
          <mxGeometry y="130" width="160" height="26" as="geometry" />
        </mxCell>
        <mxCell id="tGMAhIrGCzKoIyGZds5J-182" value="totalLike: Integer" style="text;align=left;verticalAlign=top;spacingLeft=4;spacingRight=4;overflow=hidden;rotatable=0;points=[[0,0.5],[1,0.5]];portConstraint=eastwest;" parent="tGMAhIrGCzKoIyGZds5J-177" vertex="1">
          <mxGeometry y="156" width="160" height="26" as="geometry" />
        </mxCell>
        <mxCell id="H2XDDkwPHoEkeBYI8tUK-1" value="totalComment: Integer" style="text;align=left;verticalAlign=top;spacingLeft=4;spacingRight=4;overflow=hidden;rotatable=0;points=[[0,0.5],[1,0.5]];portConstraint=eastwest;" parent="tGMAhIrGCzKoIyGZds5J-177" vertex="1">
          <mxGeometry y="182" width="160" height="26" as="geometry" />
        </mxCell>
        <mxCell id="H2XDDkwPHoEkeBYI8tUK-2" value="totalView: Integer" style="text;align=left;verticalAlign=top;spacingLeft=4;spacingRight=4;overflow=hidden;rotatable=0;points=[[0,0.5],[1,0.5]];portConstraint=eastwest;" parent="tGMAhIrGCzKoIyGZds5J-177" vertex="1">
          <mxGeometry y="208" width="160" height="26" as="geometry" />
        </mxCell>
        <mxCell id="H2XDDkwPHoEkeBYI8tUK-3" value="createdDate: Date" style="text;align=left;verticalAlign=top;spacingLeft=4;spacingRight=4;overflow=hidden;rotatable=0;points=[[0,0.5],[1,0.5]];portConstraint=eastwest;" parent="tGMAhIrGCzKoIyGZds5J-177" vertex="1">
          <mxGeometry y="234" width="160" height="26" as="geometry" />
        </mxCell>
        <mxCell id="5_867ANT87SpvfsRSU_C-32" value="urlPost: String" style="text;align=left;verticalAlign=top;spacingLeft=4;spacingRight=4;overflow=hidden;rotatable=0;points=[[0,0.5],[1,0.5]];portConstraint=eastwest;" parent="tGMAhIrGCzKoIyGZds5J-177" vertex="1">
          <mxGeometry y="260" width="160" height="26" as="geometry" />
        </mxCell>
        <mxCell id="13aqxsSrcnJj2Fvq4oas-22" value="totalTypeReact: String" style="text;align=left;verticalAlign=top;spacingLeft=4;spacingRight=4;overflow=hidden;rotatable=0;points=[[0,0.5],[1,0.5]];portConstraint=eastwest;" vertex="1" parent="tGMAhIrGCzKoIyGZds5J-177">
          <mxGeometry y="286" width="160" height="26" as="geometry" />
        </mxCell>
        <mxCell id="H2XDDkwPHoEkeBYI8tUK-0" value="isDeleted: Boolean" style="text;align=left;verticalAlign=top;spacingLeft=4;spacingRight=4;overflow=hidden;rotatable=0;points=[[0,0.5],[1,0.5]];portConstraint=eastwest;" parent="tGMAhIrGCzKoIyGZds5J-177" vertex="1">
          <mxGeometry y="312" width="160" height="26" as="geometry" />
        </mxCell>
        <mxCell id="tGMAhIrGCzKoIyGZds5J-183" value="" style="line;html=1;strokeWidth=1;align=left;verticalAlign=middle;spacingTop=-1;spacingLeft=3;spacingRight=3;rotatable=0;labelPosition=right;points=[];portConstraint=eastwest;" parent="tGMAhIrGCzKoIyGZds5J-177" vertex="1">
          <mxGeometry y="338" width="160" height="8" as="geometry" />
        </mxCell>
        <mxCell id="5_867ANT87SpvfsRSU_C-0" value="CategoryForum" style="swimlane;fontStyle=2;align=center;verticalAlign=top;childLayout=stackLayout;horizontal=1;startSize=26;horizontalStack=0;resizeParent=1;resizeLast=0;collapsible=1;marginBottom=0;rounded=0;shadow=0;strokeWidth=1;fillColor=#f8cecc;strokeColor=#b85450;" parent="WIyWlLk6GJQsqaUBKTNV-1" vertex="1">
          <mxGeometry x="-470" y="486" width="160" height="144" as="geometry">
            <mxRectangle x="550" y="140" width="160" height="26" as="alternateBounds" />
          </mxGeometry>
        </mxCell>
        <mxCell id="5_867ANT87SpvfsRSU_C-1" value="id: Integer" style="text;align=left;verticalAlign=top;spacingLeft=4;spacingRight=4;overflow=hidden;rotatable=0;points=[[0,0.5],[1,0.5]];portConstraint=eastwest;" parent="5_867ANT87SpvfsRSU_C-0" vertex="1">
          <mxGeometry y="26" width="160" height="26" as="geometry" />
        </mxCell>
        <mxCell id="5_867ANT87SpvfsRSU_C-2" value="nameCategory: String" style="text;align=left;verticalAlign=top;spacingLeft=4;spacingRight=4;overflow=hidden;rotatable=0;points=[[0,0.5],[1,0.5]];portConstraint=eastwest;" parent="5_867ANT87SpvfsRSU_C-0" vertex="1">
          <mxGeometry y="52" width="160" height="26" as="geometry" />
        </mxCell>
        <mxCell id="5_867ANT87SpvfsRSU_C-14" value="totalPost: Integer" style="text;align=left;verticalAlign=top;spacingLeft=4;spacingRight=4;overflow=hidden;rotatable=0;points=[[0,0.5],[1,0.5]];portConstraint=eastwest;" parent="5_867ANT87SpvfsRSU_C-0" vertex="1">
          <mxGeometry y="78" width="160" height="26" as="geometry" />
        </mxCell>
        <mxCell id="5_867ANT87SpvfsRSU_C-16" value="totalComment: Integer" style="text;align=left;verticalAlign=top;spacingLeft=4;spacingRight=4;overflow=hidden;rotatable=0;points=[[0,0.5],[1,0.5]];portConstraint=eastwest;" parent="5_867ANT87SpvfsRSU_C-0" vertex="1">
          <mxGeometry y="104" width="160" height="26" as="geometry" />
        </mxCell>
        <mxCell id="5_867ANT87SpvfsRSU_C-11" value="" style="line;html=1;strokeWidth=1;align=left;verticalAlign=middle;spacingTop=-1;spacingLeft=3;spacingRight=3;rotatable=0;labelPosition=right;points=[];portConstraint=eastwest;" parent="5_867ANT87SpvfsRSU_C-0" vertex="1">
          <mxGeometry y="130" width="160" height="10" as="geometry" />
        </mxCell>
        <mxCell id="5_867ANT87SpvfsRSU_C-17" value="CommentPost" style="swimlane;fontStyle=2;align=center;verticalAlign=top;childLayout=stackLayout;horizontal=1;startSize=26;horizontalStack=0;resizeParent=1;resizeLast=0;collapsible=1;marginBottom=0;rounded=0;shadow=0;strokeWidth=1;fillColor=#f8cecc;strokeColor=#b85450;" parent="WIyWlLk6GJQsqaUBKTNV-1" vertex="1">
          <mxGeometry x="60" y="574" width="160" height="166" as="geometry">
            <mxRectangle x="550" y="140" width="160" height="26" as="alternateBounds" />
          </mxGeometry>
        </mxCell>
        <mxCell id="13aqxsSrcnJj2Fvq4oas-13" value="id: Integer" style="text;align=left;verticalAlign=top;spacingLeft=4;spacingRight=4;overflow=hidden;rotatable=0;points=[[0,0.5],[1,0.5]];portConstraint=eastwest;" vertex="1" parent="5_867ANT87SpvfsRSU_C-17">
          <mxGeometry y="26" width="160" height="26" as="geometry" />
        </mxCell>
        <mxCell id="5_867ANT87SpvfsRSU_C-19" value="content: String" style="text;align=left;verticalAlign=top;spacingLeft=4;spacingRight=4;overflow=hidden;rotatable=0;points=[[0,0.5],[1,0.5]];portConstraint=eastwest;" parent="5_867ANT87SpvfsRSU_C-17" vertex="1">
          <mxGeometry y="52" width="160" height="26" as="geometry" />
        </mxCell>
        <mxCell id="5_867ANT87SpvfsRSU_C-31" value="createdDate: Date" style="text;align=left;verticalAlign=top;spacingLeft=4;spacingRight=4;overflow=hidden;rotatable=0;points=[[0,0.5],[1,0.5]];portConstraint=eastwest;" parent="5_867ANT87SpvfsRSU_C-17" vertex="1">
          <mxGeometry y="78" width="160" height="26" as="geometry" />
        </mxCell>
        <mxCell id="5_867ANT87SpvfsRSU_C-20" value="totalLike: Integer" style="text;align=left;verticalAlign=top;spacingLeft=4;spacingRight=4;overflow=hidden;rotatable=0;points=[[0,0.5],[1,0.5]];portConstraint=eastwest;" parent="5_867ANT87SpvfsRSU_C-17" vertex="1">
          <mxGeometry y="104" width="160" height="26" as="geometry" />
        </mxCell>
        <mxCell id="13aqxsSrcnJj2Fvq4oas-21" value="totalTypeReact: String" style="text;align=left;verticalAlign=top;spacingLeft=4;spacingRight=4;overflow=hidden;rotatable=0;points=[[0,0.5],[1,0.5]];portConstraint=eastwest;" vertex="1" parent="5_867ANT87SpvfsRSU_C-17">
          <mxGeometry y="130" width="160" height="26" as="geometry" />
        </mxCell>
        <mxCell id="5_867ANT87SpvfsRSU_C-22" value="" style="line;html=1;strokeWidth=1;align=left;verticalAlign=middle;spacingTop=-1;spacingLeft=3;spacingRight=3;rotatable=0;labelPosition=right;points=[];portConstraint=eastwest;" parent="5_867ANT87SpvfsRSU_C-17" vertex="1">
          <mxGeometry y="156" width="160" height="10" as="geometry" />
        </mxCell>
        <mxCell id="5_867ANT87SpvfsRSU_C-23" value="ReportPost" style="swimlane;fontStyle=2;align=center;verticalAlign=top;childLayout=stackLayout;horizontal=1;startSize=26;horizontalStack=0;resizeParent=1;resizeLast=0;collapsible=1;marginBottom=0;rounded=0;shadow=0;strokeWidth=1;fillColor=#f8cecc;strokeColor=#b85450;" parent="WIyWlLk6GJQsqaUBKTNV-1" vertex="1">
          <mxGeometry x="-290" y="740" width="160" height="150" as="geometry">
            <mxRectangle x="550" y="140" width="160" height="26" as="alternateBounds" />
          </mxGeometry>
        </mxCell>
        <mxCell id="5_867ANT87SpvfsRSU_C-28" value="type: String" style="text;align=left;verticalAlign=top;spacingLeft=4;spacingRight=4;overflow=hidden;rotatable=0;points=[[0,0.5],[1,0.5]];portConstraint=eastwest;" parent="5_867ANT87SpvfsRSU_C-23" vertex="1">
          <mxGeometry y="26" width="160" height="26" as="geometry" />
        </mxCell>
        <mxCell id="5_867ANT87SpvfsRSU_C-25" value="title: String" style="text;align=left;verticalAlign=top;spacingLeft=4;spacingRight=4;overflow=hidden;rotatable=0;points=[[0,0.5],[1,0.5]];portConstraint=eastwest;" parent="5_867ANT87SpvfsRSU_C-23" vertex="1">
          <mxGeometry y="52" width="160" height="26" as="geometry" />
        </mxCell>
        <mxCell id="5_867ANT87SpvfsRSU_C-26" value="content: String" style="text;align=left;verticalAlign=top;spacingLeft=4;spacingRight=4;overflow=hidden;rotatable=0;points=[[0,0.5],[1,0.5]];portConstraint=eastwest;" parent="5_867ANT87SpvfsRSU_C-23" vertex="1">
          <mxGeometry y="78" width="160" height="26" as="geometry" />
        </mxCell>
        <mxCell id="5_867ANT87SpvfsRSU_C-29" value="createdDate: Date" style="text;align=left;verticalAlign=top;spacingLeft=4;spacingRight=4;overflow=hidden;rotatable=0;points=[[0,0.5],[1,0.5]];portConstraint=eastwest;" parent="5_867ANT87SpvfsRSU_C-23" vertex="1">
          <mxGeometry y="104" width="160" height="26" as="geometry" />
        </mxCell>
        <mxCell id="5_867ANT87SpvfsRSU_C-27" value="" style="line;html=1;strokeWidth=1;align=left;verticalAlign=middle;spacingTop=-1;spacingLeft=3;spacingRight=3;rotatable=0;labelPosition=right;points=[];portConstraint=eastwest;" parent="5_867ANT87SpvfsRSU_C-23" vertex="1">
          <mxGeometry y="130" width="160" height="10" as="geometry" />
        </mxCell>
        <mxCell id="zBdQ9yIa63sPfQLUE4bA-0" value="" style="endArrow=none;shadow=0;strokeWidth=1;rounded=0;endFill=0;edgeStyle=elbowEdgeStyle;elbow=vertical;exitX=1;exitY=0.5;exitDx=0;exitDy=0;entryX=0;entryY=0.5;entryDx=0;entryDy=0;" parent="WIyWlLk6GJQsqaUBKTNV-1" edge="1">
          <mxGeometry x="0.5" y="41" relative="1" as="geometry">
            <mxPoint x="-70" y="397" as="sourcePoint" />
            <mxPoint x="110" y="410" as="targetPoint" />
            <mxPoint x="-40" y="32" as="offset" />
            <Array as="points">
              <mxPoint x="20" y="410" />
              <mxPoint x="290" y="584.5" />
            </Array>
          </mxGeometry>
        </mxCell>
        <mxCell id="zBdQ9yIa63sPfQLUE4bA-1" value="0..*" style="resizable=0;align=left;verticalAlign=bottom;labelBackgroundColor=none;fontSize=16;" parent="zBdQ9yIa63sPfQLUE4bA-0" connectable="0" vertex="1">
          <mxGeometry x="-1" relative="1" as="geometry">
            <mxPoint x="3" y="11" as="offset" />
          </mxGeometry>
        </mxCell>
        <mxCell id="zBdQ9yIa63sPfQLUE4bA-2" value="1" style="resizable=0;align=right;verticalAlign=bottom;labelBackgroundColor=none;fontSize=16;" parent="zBdQ9yIa63sPfQLUE4bA-0" connectable="0" vertex="1">
          <mxGeometry x="1" relative="1" as="geometry">
            <mxPoint x="-3" as="offset" />
          </mxGeometry>
        </mxCell>
        <mxCell id="zBdQ9yIa63sPfQLUE4bA-3" value="" style="endArrow=none;shadow=0;strokeWidth=1;rounded=0;endFill=0;edgeStyle=elbowEdgeStyle;elbow=vertical;exitX=1;exitY=0.5;exitDx=0;exitDy=0;entryX=0;entryY=0.5;entryDx=0;entryDy=0;" parent="WIyWlLk6GJQsqaUBKTNV-1" source="5_867ANT87SpvfsRSU_C-2" target="H2XDDkwPHoEkeBYI8tUK-1" edge="1">
          <mxGeometry x="0.5" y="41" relative="1" as="geometry">
            <mxPoint x="-300" y="564" as="sourcePoint" />
            <mxPoint x="-120" y="577" as="targetPoint" />
            <mxPoint x="-40" y="32" as="offset" />
            <Array as="points">
              <mxPoint x="-200" y="550" />
              <mxPoint x="60" y="751.5" />
            </Array>
          </mxGeometry>
        </mxCell>
        <mxCell id="zBdQ9yIa63sPfQLUE4bA-4" value="1" style="resizable=0;align=left;verticalAlign=bottom;labelBackgroundColor=none;fontSize=16;" parent="zBdQ9yIa63sPfQLUE4bA-3" connectable="0" vertex="1">
          <mxGeometry x="-1" relative="1" as="geometry">
            <mxPoint x="1" y="20" as="offset" />
          </mxGeometry>
        </mxCell>
        <mxCell id="zBdQ9yIa63sPfQLUE4bA-5" value="0..*" style="resizable=0;align=right;verticalAlign=bottom;labelBackgroundColor=none;fontSize=16;" parent="zBdQ9yIa63sPfQLUE4bA-3" connectable="0" vertex="1">
          <mxGeometry x="1" relative="1" as="geometry">
            <mxPoint x="-4" y="-16" as="offset" />
          </mxGeometry>
        </mxCell>
        <mxCell id="HKFf9oQ8qB0i96UbOJkU-13" value="LikePost" style="swimlane;fontStyle=2;align=center;verticalAlign=top;childLayout=stackLayout;horizontal=1;startSize=26;horizontalStack=0;resizeParent=1;resizeLast=0;collapsible=1;marginBottom=0;rounded=0;shadow=0;strokeWidth=1;fillColor=#f8cecc;strokeColor=#b85450;" parent="WIyWlLk6GJQsqaUBKTNV-1" vertex="1">
          <mxGeometry x="-50" y="840" width="160" height="88" as="geometry">
            <mxRectangle x="550" y="140" width="160" height="26" as="alternateBounds" />
          </mxGeometry>
        </mxCell>
        <mxCell id="HKFf9oQ8qB0i96UbOJkU-16" value="createdDate: Date&#xa;" style="text;align=left;verticalAlign=top;spacingLeft=4;spacingRight=4;overflow=hidden;rotatable=0;points=[[0,0.5],[1,0.5]];portConstraint=eastwest;" parent="HKFf9oQ8qB0i96UbOJkU-13" vertex="1">
          <mxGeometry y="26" width="160" height="26" as="geometry" />
        </mxCell>
        <mxCell id="13aqxsSrcnJj2Fvq4oas-1" value="typeReact: String" style="text;align=left;verticalAlign=top;spacingLeft=4;spacingRight=4;overflow=hidden;rotatable=0;points=[[0,0.5],[1,0.5]];portConstraint=eastwest;" vertex="1" parent="HKFf9oQ8qB0i96UbOJkU-13">
          <mxGeometry y="52" width="160" height="26" as="geometry" />
        </mxCell>
        <mxCell id="HKFf9oQ8qB0i96UbOJkU-18" value="" style="line;html=1;strokeWidth=1;align=left;verticalAlign=middle;spacingTop=-1;spacingLeft=3;spacingRight=3;rotatable=0;labelPosition=right;points=[];portConstraint=eastwest;" parent="HKFf9oQ8qB0i96UbOJkU-13" vertex="1">
          <mxGeometry y="78" width="160" height="10" as="geometry" />
        </mxCell>
        <mxCell id="HKFf9oQ8qB0i96UbOJkU-19" value="" style="endArrow=none;shadow=0;strokeWidth=1;rounded=0;endFill=0;edgeStyle=elbowEdgeStyle;elbow=vertical;exitX=0.5;exitY=0;exitDx=0;exitDy=0;entryX=0.25;entryY=1;entryDx=0;entryDy=0;" parent="WIyWlLk6GJQsqaUBKTNV-1" source="5_867ANT87SpvfsRSU_C-17" target="zkfFHV4jXpPFQw0GAbJ--0" edge="1">
          <mxGeometry x="0.5" y="41" relative="1" as="geometry">
            <mxPoint x="-70" y="530" as="sourcePoint" />
            <mxPoint x="110" y="543" as="targetPoint" />
            <mxPoint x="-40" y="32" as="offset" />
            <Array as="points">
              <mxPoint x="140" y="550" />
              <mxPoint x="290" y="717.5" />
            </Array>
          </mxGeometry>
        </mxCell>
        <mxCell id="HKFf9oQ8qB0i96UbOJkU-20" value="0..*" style="resizable=0;align=left;verticalAlign=bottom;labelBackgroundColor=none;fontSize=16;" parent="HKFf9oQ8qB0i96UbOJkU-19" connectable="0" vertex="1">
          <mxGeometry x="-1" relative="1" as="geometry">
            <mxPoint x="2" y="1" as="offset" />
          </mxGeometry>
        </mxCell>
        <mxCell id="HKFf9oQ8qB0i96UbOJkU-21" value="1" style="resizable=0;align=right;verticalAlign=bottom;labelBackgroundColor=none;fontSize=16;" parent="HKFf9oQ8qB0i96UbOJkU-19" connectable="0" vertex="1">
          <mxGeometry x="1" relative="1" as="geometry">
            <mxPoint x="-3" y="22" as="offset" />
          </mxGeometry>
        </mxCell>
        <mxCell id="HKFf9oQ8qB0i96UbOJkU-25" value="" style="endArrow=none;shadow=0;strokeWidth=1;rounded=0;endFill=0;edgeStyle=elbowEdgeStyle;elbow=vertical;exitX=0;exitY=0.5;exitDx=0;exitDy=0;entryX=1;entryY=0.5;entryDx=0;entryDy=0;" parent="WIyWlLk6GJQsqaUBKTNV-1" source="5_867ANT87SpvfsRSU_C-19" target="H2XDDkwPHoEkeBYI8tUK-3" edge="1">
          <mxGeometry x="0.5" y="41" relative="1" as="geometry">
            <mxPoint x="20" y="630" as="sourcePoint" />
            <mxPoint x="20" y="556" as="targetPoint" />
            <mxPoint x="-40" y="32" as="offset" />
            <Array as="points">
              <mxPoint x="10" y="620" />
              <mxPoint x="160" y="787.5" />
            </Array>
          </mxGeometry>
        </mxCell>
        <mxCell id="HKFf9oQ8qB0i96UbOJkU-26" value="0..*" style="resizable=0;align=left;verticalAlign=bottom;labelBackgroundColor=none;fontSize=16;" parent="HKFf9oQ8qB0i96UbOJkU-25" connectable="0" vertex="1">
          <mxGeometry x="-1" relative="1" as="geometry">
            <mxPoint x="-27" y="19" as="offset" />
          </mxGeometry>
        </mxCell>
        <mxCell id="HKFf9oQ8qB0i96UbOJkU-27" value="1" style="resizable=0;align=right;verticalAlign=bottom;labelBackgroundColor=none;fontSize=16;" parent="HKFf9oQ8qB0i96UbOJkU-25" connectable="0" vertex="1">
          <mxGeometry x="1" relative="1" as="geometry">
            <mxPoint x="14" y="2" as="offset" />
          </mxGeometry>
        </mxCell>
        <mxCell id="HKFf9oQ8qB0i96UbOJkU-31" value="" style="endArrow=none;shadow=0;strokeWidth=1;rounded=0;endFill=0;edgeStyle=orthogonalEdgeStyle;elbow=vertical;exitX=0.5;exitY=0;exitDx=0;exitDy=0;entryX=0;entryY=0.5;entryDx=0;entryDy=0;" parent="WIyWlLk6GJQsqaUBKTNV-1" source="HKFf9oQ8qB0i96UbOJkU-13" target="tGMAhIrGCzKoIyGZds5J-135" edge="1">
          <mxGeometry x="0.5" y="41" relative="1" as="geometry">
            <mxPoint x="10" y="544" as="sourcePoint" />
            <mxPoint x="10" y="470" as="targetPoint" />
            <mxPoint x="-40" y="32" as="offset" />
          </mxGeometry>
        </mxCell>
        <mxCell id="HKFf9oQ8qB0i96UbOJkU-32" value="0..*" style="resizable=0;align=left;verticalAlign=bottom;labelBackgroundColor=none;fontSize=16;" parent="HKFf9oQ8qB0i96UbOJkU-31" connectable="0" vertex="1">
          <mxGeometry x="-1" relative="1" as="geometry">
            <mxPoint x="2" y="1" as="offset" />
          </mxGeometry>
        </mxCell>
        <mxCell id="HKFf9oQ8qB0i96UbOJkU-33" value="1" style="resizable=0;align=right;verticalAlign=bottom;labelBackgroundColor=none;fontSize=16;" parent="HKFf9oQ8qB0i96UbOJkU-31" connectable="0" vertex="1">
          <mxGeometry x="1" relative="1" as="geometry">
            <mxPoint x="-2" y="1" as="offset" />
          </mxGeometry>
        </mxCell>
        <mxCell id="HKFf9oQ8qB0i96UbOJkU-34" value="" style="endArrow=none;shadow=0;strokeWidth=1;rounded=0;endFill=0;edgeStyle=orthogonalEdgeStyle;elbow=vertical;entryX=1;entryY=0.5;entryDx=0;entryDy=0;" parent="WIyWlLk6GJQsqaUBKTNV-1" target="5_867ANT87SpvfsRSU_C-32" edge="1">
          <mxGeometry x="0.5" y="41" relative="1" as="geometry">
            <mxPoint x="-50" y="879" as="sourcePoint" />
            <mxPoint x="120" y="447" as="targetPoint" />
            <mxPoint x="-40" y="32" as="offset" />
          </mxGeometry>
        </mxCell>
        <mxCell id="HKFf9oQ8qB0i96UbOJkU-35" value="0..*" style="resizable=0;align=left;verticalAlign=bottom;labelBackgroundColor=none;fontSize=16;" parent="HKFf9oQ8qB0i96UbOJkU-34" connectable="0" vertex="1">
          <mxGeometry x="-1" relative="1" as="geometry">
            <mxPoint x="-30" y="-29" as="offset" />
          </mxGeometry>
        </mxCell>
        <mxCell id="HKFf9oQ8qB0i96UbOJkU-36" value="1" style="resizable=0;align=right;verticalAlign=bottom;labelBackgroundColor=none;fontSize=16;" parent="HKFf9oQ8qB0i96UbOJkU-34" connectable="0" vertex="1">
          <mxGeometry x="1" relative="1" as="geometry">
            <mxPoint x="33" y="17" as="offset" />
          </mxGeometry>
        </mxCell>
        <mxCell id="HKFf9oQ8qB0i96UbOJkU-37" value="" style="endArrow=none;shadow=0;strokeWidth=1;rounded=0;endFill=0;edgeStyle=orthogonalEdgeStyle;elbow=vertical;exitX=1;exitY=0.5;exitDx=0;exitDy=0;entryX=0;entryY=0.5;entryDx=0;entryDy=0;" parent="WIyWlLk6GJQsqaUBKTNV-1" source="5_867ANT87SpvfsRSU_C-28" target="MLxWAp-ao5NovIpb98pb-7" edge="1">
          <mxGeometry x="0.5" y="41" relative="1" as="geometry">
            <mxPoint x="50" y="810" as="sourcePoint" />
            <mxPoint x="120" y="447" as="targetPoint" />
            <mxPoint x="-40" y="32" as="offset" />
          </mxGeometry>
        </mxCell>
        <mxCell id="HKFf9oQ8qB0i96UbOJkU-38" value="0..*" style="resizable=0;align=left;verticalAlign=bottom;labelBackgroundColor=none;fontSize=16;" parent="HKFf9oQ8qB0i96UbOJkU-37" connectable="0" vertex="1">
          <mxGeometry x="-1" relative="1" as="geometry">
            <mxPoint x="2" y="1" as="offset" />
          </mxGeometry>
        </mxCell>
        <mxCell id="HKFf9oQ8qB0i96UbOJkU-39" value="1" style="resizable=0;align=right;verticalAlign=bottom;labelBackgroundColor=none;fontSize=16;" parent="HKFf9oQ8qB0i96UbOJkU-37" connectable="0" vertex="1">
          <mxGeometry x="1" relative="1" as="geometry">
            <mxPoint x="-3" y="19" as="offset" />
          </mxGeometry>
        </mxCell>
        <mxCell id="HKFf9oQ8qB0i96UbOJkU-40" value="" style="endArrow=none;shadow=0;strokeWidth=1;rounded=0;endFill=0;edgeStyle=orthogonalEdgeStyle;elbow=vertical;exitX=0;exitY=0.5;exitDx=0;exitDy=0;entryX=0;entryY=0.5;entryDx=0;entryDy=0;" parent="WIyWlLk6GJQsqaUBKTNV-1" source="5_867ANT87SpvfsRSU_C-25" target="5_867ANT87SpvfsRSU_C-32" edge="1">
          <mxGeometry x="0.5" y="41" relative="1" as="geometry">
            <mxPoint x="-120" y="815" as="sourcePoint" />
            <mxPoint x="120" y="473" as="targetPoint" />
            <mxPoint x="-40" y="32" as="offset" />
          </mxGeometry>
        </mxCell>
        <mxCell id="HKFf9oQ8qB0i96UbOJkU-41" value="0..*" style="resizable=0;align=left;verticalAlign=bottom;labelBackgroundColor=none;fontSize=16;" parent="HKFf9oQ8qB0i96UbOJkU-40" connectable="0" vertex="1">
          <mxGeometry x="-1" relative="1" as="geometry">
            <mxPoint x="-42" y="7" as="offset" />
          </mxGeometry>
        </mxCell>
        <mxCell id="HKFf9oQ8qB0i96UbOJkU-42" value="1" style="resizable=0;align=right;verticalAlign=bottom;labelBackgroundColor=none;fontSize=16;" parent="HKFf9oQ8qB0i96UbOJkU-40" connectable="0" vertex="1">
          <mxGeometry x="1" relative="1" as="geometry">
            <mxPoint x="-4" y="1" as="offset" />
          </mxGeometry>
        </mxCell>
        <mxCell id="ZJe5yLON-QLYzdqqWPnC-5" value="" style="endArrow=none;shadow=0;strokeWidth=1;rounded=0;endFill=0;edgeStyle=elbowEdgeStyle;elbow=vertical;entryX=0;entryY=0.5;entryDx=0;entryDy=0;exitX=1;exitY=0.5;exitDx=0;exitDy=0;" parent="WIyWlLk6GJQsqaUBKTNV-1" source="MLxWAp-ao5NovIpb98pb-6" target="tGMAhIrGCzKoIyGZds5J-17" edge="1">
          <mxGeometry x="0.5" y="41" relative="1" as="geometry">
            <mxPoint x="270" y="290" as="sourcePoint" />
            <mxPoint x="410" y="290" as="targetPoint" />
            <mxPoint x="-40" y="32" as="offset" />
          </mxGeometry>
        </mxCell>
        <mxCell id="ZJe5yLON-QLYzdqqWPnC-6" value="1" style="resizable=0;align=left;verticalAlign=bottom;labelBackgroundColor=none;fontSize=16;" parent="ZJe5yLON-QLYzdqqWPnC-5" connectable="0" vertex="1">
          <mxGeometry x="-1" relative="1" as="geometry">
            <mxPoint x="1" y="-30" as="offset" />
          </mxGeometry>
        </mxCell>
        <mxCell id="ZJe5yLON-QLYzdqqWPnC-7" value="0..*" style="resizable=0;align=right;verticalAlign=bottom;labelBackgroundColor=none;fontSize=16;" parent="ZJe5yLON-QLYzdqqWPnC-5" connectable="0" vertex="1">
          <mxGeometry x="1" relative="1" as="geometry">
            <mxPoint x="-3" y="57" as="offset" />
          </mxGeometry>
        </mxCell>
        <mxCell id="ZJe5yLON-QLYzdqqWPnC-8" value="Assign" style="edgeLabel;html=1;align=center;verticalAlign=middle;resizable=0;points=[];" parent="ZJe5yLON-QLYzdqqWPnC-5" vertex="1" connectable="0">
          <mxGeometry x="-0.1429" y="-2" relative="1" as="geometry">
            <mxPoint x="5" y="-2" as="offset" />
          </mxGeometry>
        </mxCell>
        <mxCell id="13aqxsSrcnJj2Fvq4oas-2" value="" style="endArrow=none;shadow=0;strokeWidth=1;rounded=0;endFill=0;edgeStyle=elbowEdgeStyle;elbow=vertical;entryX=0;entryY=0.5;entryDx=0;entryDy=0;exitX=1;exitY=0.5;exitDx=0;exitDy=0;" edge="1" parent="WIyWlLk6GJQsqaUBKTNV-1" source="MLxWAp-ao5NovIpb98pb-8" target="tGMAhIrGCzKoIyGZds5J-84">
          <mxGeometry x="0.5" y="41" relative="1" as="geometry">
            <mxPoint x="320" y="440" as="sourcePoint" />
            <mxPoint x="460" y="320" as="targetPoint" />
            <mxPoint x="-40" y="32" as="offset" />
          </mxGeometry>
        </mxCell>
        <mxCell id="13aqxsSrcnJj2Fvq4oas-3" value="1" style="resizable=0;align=left;verticalAlign=bottom;labelBackgroundColor=none;fontSize=16;" connectable="0" vertex="1" parent="13aqxsSrcnJj2Fvq4oas-2">
          <mxGeometry x="-1" relative="1" as="geometry">
            <mxPoint x="2" y="-7" as="offset" />
          </mxGeometry>
        </mxCell>
        <mxCell id="13aqxsSrcnJj2Fvq4oas-4" value="0..*" style="resizable=0;align=right;verticalAlign=bottom;labelBackgroundColor=none;fontSize=16;" connectable="0" vertex="1" parent="13aqxsSrcnJj2Fvq4oas-2">
          <mxGeometry x="1" relative="1" as="geometry">
            <mxPoint x="-3" y="25" as="offset" />
          </mxGeometry>
        </mxCell>
        <mxCell id="13aqxsSrcnJj2Fvq4oas-7" value="" style="endArrow=none;shadow=0;strokeWidth=1;rounded=0;endFill=0;edgeStyle=elbowEdgeStyle;elbow=vertical;entryX=0.25;entryY=0;entryDx=0;entryDy=0;exitX=1;exitY=0.5;exitDx=0;exitDy=0;" edge="1" parent="WIyWlLk6GJQsqaUBKTNV-1" source="MLxWAp-ao5NovIpb98pb-4" target="tGMAhIrGCzKoIyGZds5J-93">
          <mxGeometry x="0.5" y="41" relative="1" as="geometry">
            <mxPoint x="280" y="369" as="sourcePoint" />
            <mxPoint x="700" y="367" as="targetPoint" />
            <mxPoint x="-40" y="32" as="offset" />
            <Array as="points">
              <mxPoint x="510" y="400" />
            </Array>
          </mxGeometry>
        </mxCell>
        <mxCell id="13aqxsSrcnJj2Fvq4oas-8" value="1" style="resizable=0;align=left;verticalAlign=bottom;labelBackgroundColor=none;fontSize=16;" connectable="0" vertex="1" parent="13aqxsSrcnJj2Fvq4oas-7">
          <mxGeometry x="-1" relative="1" as="geometry">
            <mxPoint x="-1" y="15" as="offset" />
          </mxGeometry>
        </mxCell>
        <mxCell id="13aqxsSrcnJj2Fvq4oas-9" value="0..*" style="resizable=0;align=right;verticalAlign=bottom;labelBackgroundColor=none;fontSize=16;" connectable="0" vertex="1" parent="13aqxsSrcnJj2Fvq4oas-7">
          <mxGeometry x="1" relative="1" as="geometry">
            <mxPoint x="-2" y="-2" as="offset" />
          </mxGeometry>
        </mxCell>
        <mxCell id="13aqxsSrcnJj2Fvq4oas-10" value="" style="endArrow=none;shadow=0;strokeWidth=1;rounded=0;endFill=0;edgeStyle=elbowEdgeStyle;elbow=vertical;entryX=0.25;entryY=0;entryDx=0;entryDy=0;exitX=1;exitY=0.5;exitDx=0;exitDy=0;" edge="1" parent="WIyWlLk6GJQsqaUBKTNV-1" source="tGMAhIrGCzKoIyGZds5J-135" target="tGMAhIrGCzKoIyGZds5J-64">
          <mxGeometry x="0.5" y="41" relative="1" as="geometry">
            <mxPoint x="280" y="420" as="sourcePoint" />
            <mxPoint x="748" y="485" as="targetPoint" />
            <mxPoint x="-40" y="32" as="offset" />
            <Array as="points">
              <mxPoint x="520" y="435" />
            </Array>
          </mxGeometry>
        </mxCell>
        <mxCell id="13aqxsSrcnJj2Fvq4oas-11" value="1" style="resizable=0;align=left;verticalAlign=bottom;labelBackgroundColor=none;fontSize=16;" connectable="0" vertex="1" parent="13aqxsSrcnJj2Fvq4oas-10">
          <mxGeometry x="-1" relative="1" as="geometry">
            <mxPoint y="21" as="offset" />
          </mxGeometry>
        </mxCell>
        <mxCell id="13aqxsSrcnJj2Fvq4oas-12" value="0..*" style="resizable=0;align=right;verticalAlign=bottom;labelBackgroundColor=none;fontSize=16;" connectable="0" vertex="1" parent="13aqxsSrcnJj2Fvq4oas-10">
          <mxGeometry x="1" relative="1" as="geometry">
            <mxPoint x="-2" y="-2" as="offset" />
          </mxGeometry>
        </mxCell>
        <mxCell id="13aqxsSrcnJj2Fvq4oas-14" value="LikeComment" style="swimlane;fontStyle=2;align=center;verticalAlign=top;childLayout=stackLayout;horizontal=1;startSize=26;horizontalStack=0;resizeParent=1;resizeLast=0;collapsible=1;marginBottom=0;rounded=0;shadow=0;strokeWidth=1;fillColor=#f8cecc;strokeColor=#b85450;" vertex="1" parent="WIyWlLk6GJQsqaUBKTNV-1">
          <mxGeometry x="190" y="810" width="160" height="88" as="geometry">
            <mxRectangle x="550" y="140" width="160" height="26" as="alternateBounds" />
          </mxGeometry>
        </mxCell>
        <mxCell id="13aqxsSrcnJj2Fvq4oas-15" value="createdDate: Date&#xa;" style="text;align=left;verticalAlign=top;spacingLeft=4;spacingRight=4;overflow=hidden;rotatable=0;points=[[0,0.5],[1,0.5]];portConstraint=eastwest;" vertex="1" parent="13aqxsSrcnJj2Fvq4oas-14">
          <mxGeometry y="26" width="160" height="26" as="geometry" />
        </mxCell>
        <mxCell id="13aqxsSrcnJj2Fvq4oas-16" value="typeReact: String" style="text;align=left;verticalAlign=top;spacingLeft=4;spacingRight=4;overflow=hidden;rotatable=0;points=[[0,0.5],[1,0.5]];portConstraint=eastwest;" vertex="1" parent="13aqxsSrcnJj2Fvq4oas-14">
          <mxGeometry y="52" width="160" height="26" as="geometry" />
        </mxCell>
        <mxCell id="13aqxsSrcnJj2Fvq4oas-17" value="" style="line;html=1;strokeWidth=1;align=left;verticalAlign=middle;spacingTop=-1;spacingLeft=3;spacingRight=3;rotatable=0;labelPosition=right;points=[];portConstraint=eastwest;" vertex="1" parent="13aqxsSrcnJj2Fvq4oas-14">
          <mxGeometry y="78" width="160" height="10" as="geometry" />
        </mxCell>
        <mxCell id="13aqxsSrcnJj2Fvq4oas-18" value="" style="endArrow=none;shadow=0;strokeWidth=1;rounded=0;endFill=0;edgeStyle=orthogonalEdgeStyle;elbow=vertical;exitX=0.5;exitY=0;exitDx=0;exitDy=0;entryX=0.5;entryY=1;entryDx=0;entryDy=0;" edge="1" parent="WIyWlLk6GJQsqaUBKTNV-1" source="13aqxsSrcnJj2Fvq4oas-14" target="5_867ANT87SpvfsRSU_C-17">
          <mxGeometry x="0.5" y="41" relative="1" as="geometry">
            <mxPoint x="40" y="850" as="sourcePoint" />
            <mxPoint x="120" y="447" as="targetPoint" />
            <mxPoint x="-40" y="32" as="offset" />
          </mxGeometry>
        </mxCell>
        <mxCell id="13aqxsSrcnJj2Fvq4oas-19" value="0..*" style="resizable=0;align=left;verticalAlign=bottom;labelBackgroundColor=none;fontSize=16;" connectable="0" vertex="1" parent="13aqxsSrcnJj2Fvq4oas-18">
          <mxGeometry x="-1" relative="1" as="geometry">
            <mxPoint x="2" y="1" as="offset" />
          </mxGeometry>
        </mxCell>
        <mxCell id="13aqxsSrcnJj2Fvq4oas-20" value="1" style="resizable=0;align=right;verticalAlign=bottom;labelBackgroundColor=none;fontSize=16;" connectable="0" vertex="1" parent="13aqxsSrcnJj2Fvq4oas-18">
          <mxGeometry x="1" relative="1" as="geometry">
            <mxPoint x="-2" y="20" as="offset" />
          </mxGeometry>
        </mxCell>
        <mxCell id="13aqxsSrcnJj2Fvq4oas-23" value="" style="endArrow=none;shadow=0;strokeWidth=1;rounded=0;endFill=0;edgeStyle=elbowEdgeStyle;elbow=vertical;exitX=0.75;exitY=0;exitDx=0;exitDy=0;entryX=0.5;entryY=1;entryDx=0;entryDy=0;" edge="1" parent="WIyWlLk6GJQsqaUBKTNV-1" source="13aqxsSrcnJj2Fvq4oas-14">
          <mxGeometry x="0.5" y="41" relative="1" as="geometry">
            <mxPoint x="300" y="810.0000000000009" as="sourcePoint" />
            <mxPoint x="180" y="485.9999999999991" as="targetPoint" />
            <mxPoint x="-40" y="32" as="offset" />
            <Array as="points">
              <mxPoint x="140" y="560" />
              <mxPoint x="290" y="727.5" />
            </Array>
          </mxGeometry>
        </mxCell>
        <mxCell id="13aqxsSrcnJj2Fvq4oas-24" value="0..*" style="resizable=0;align=left;verticalAlign=bottom;labelBackgroundColor=none;fontSize=16;" connectable="0" vertex="1" parent="13aqxsSrcnJj2Fvq4oas-23">
          <mxGeometry x="-1" relative="1" as="geometry">
            <mxPoint x="2" y="1" as="offset" />
          </mxGeometry>
        </mxCell>
        <mxCell id="13aqxsSrcnJj2Fvq4oas-25" value="1" style="resizable=0;align=right;verticalAlign=bottom;labelBackgroundColor=none;fontSize=16;" connectable="0" vertex="1" parent="13aqxsSrcnJj2Fvq4oas-23">
          <mxGeometry x="1" relative="1" as="geometry">
            <mxPoint x="-3" y="22" as="offset" />
          </mxGeometry>
        </mxCell>
      </root>
    </mxGraphModel>
  </diagram>
</mxfile>
